<svg width="200" height="202" viewBox="0 0 200 202" fill="none" xmlns="http://www.w3.org/2000/svg">
<path d="M101.853 57.5865C97.7992 66.8652 94.33 76.6942 88.5624 85.0086C87.8331 86.0527 86.074 85.4704 86.439 84.1037C88.9725 74.1938 94.1341 64.9856 98.5703 55.7526C99.6084 53.5521 102.825 55.4246 101.853 57.5865Z" fill="#ED5C01"/>
<path d="M110.897 89.5091C110.784 93.308 110.155 97.1382 108.963 100.761C107.91 103.859 106.5 107.875 103.724 109.836C102.336 110.817 100.791 109.222 101.012 107.761C101.521 104.8 103.835 102.039 104.831 99.1516C105.95 96.0154 106.649 92.7669 106.86 89.4447C107.019 86.953 111.017 86.9508 110.897 89.5091Z" fill="#ED5C01"/>
<path d="M99.3637 125.959C100.404 127.757 97.6068 129.375 96.5665 127.577C95.5263 125.779 98.3234 124.161 99.3637 125.959Z" fill="#ED5C01"/>
<path d="M129.821 103.628C128.344 107.682 126.801 111.775 125.219 115.801C124.588 117.322 122.103 116.714 122.696 115.127C124.134 111.006 125.755 107.047 127.298 102.954C127.891 101.367 130.414 102.04 129.821 103.628Z" fill="#ED5C01"/>
<path d="M124.768 133.306C122.539 135.751 121.276 138.793 119.008 141.172C118.068 142.16 116.232 141.444 116.215 140.032C116.367 136.3 119.154 132.821 121.584 130.26C123.596 128.207 126.609 131.263 124.768 133.306Z" fill="#ED5C01"/>
<path d="M125.841 62.0209C125.71 66.0966 126.132 70.2076 124.358 73.9007C123.99 74.6471 122.872 74.4049 122.62 73.6619C121.387 69.8415 122.387 65.8853 122.701 61.9708C122.967 60.1275 125.925 60.0163 125.841 62.0209Z" fill="#ED5C01"/>
<path d="M79.8164 186.511C78.5368 188.14 77.2571 189.769 76.044 191.36C75.4655 192.05 74.9746 193.045 74.2524 193.641C73.5303 194.236 72.5875 194.604 71.8549 195.028C71.1889 195.413 70.1833 194.75 70.4464 193.976C70.7761 193.163 70.9236 192.189 71.3584 191.404C71.8599 190.581 72.6486 189.947 73.2936 189.218C74.7451 187.578 76.235 186.005 77.6864 184.366C78.9765 182.908 81.0014 185.025 79.8164 186.511Z" fill="#ED5C01"/>
<path d="M136.485 28.4859C136.285 30.2907 136.046 32.0288 135.597 33.7109C135.333 34.4853 134.611 35.0808 133.819 35.0946C133.094 35.0698 132.165 34.5403 132.047 33.7202C131.889 32.8335 131.732 31.9468 131.746 31.0497C131.799 30.2191 131.747 29.3605 131.799 28.5299C131.793 27.2893 132.894 26.1192 134.173 26.1792C135.308 26.1445 136.717 27.1963 136.485 28.4859Z" fill="#ED5C01"/>
<path d="M149.784 42.5682C149.626 45.0598 149.467 47.5515 149.242 50.0817C149.063 52.2299 149.209 54.6341 148.294 56.5858C147.747 57.7911 145.96 57.3139 145.62 56.266C145.046 54.1981 145.415 51.7626 145.594 49.6144C145.725 47.2279 145.894 44.9079 146.024 42.5214C146.155 40.1349 149.981 40.1431 149.784 42.5682Z" fill="#ED5C01"/>
<path d="M104.685 14.0829C107.213 19.3755 111.007 25.6253 111.744 31.5096C111.926 33.3601 109.483 33.4399 108.656 32.3182C106.898 30.0467 106.023 26.9975 104.997 24.3021C103.883 21.3019 102.77 18.3017 101.79 15.2244C101.208 13.6051 103.932 12.474 104.685 14.0829Z" fill="#ED5C01"/>
<path d="M142.205 111.664C141.612 113.252 141.019 114.839 140.426 116.426C139.89 117.803 139.43 119.314 138.539 120.54C138.094 121.153 136.994 120.634 137.019 119.909C137.135 118.419 137.843 117.032 138.38 115.655C138.945 114.172 139.509 112.69 140.074 111.208C140.572 109.764 142.675 110.326 142.205 111.664Z" fill="#ED5C01"/>
<path d="M132.007 148.584C130.542 151.121 129.181 153.686 127.246 155.872C126.857 156.275 126.072 155.84 126.212 155.315C127.18 152.532 128.723 150.129 130.189 147.592C130.88 146.481 132.698 147.474 132.007 148.584Z" fill="#ED5C01"/>
<path d="M106.691 170.43C106.73 170.497 106.663 170.536 106.691 170.43C106.624 170.469 106.691 170.43 106.691 170.43Z" fill="#ED5C01"/>
<path d="M108.223 180.299C105.619 182.251 102.723 185.081 99.6562 186.233C98.6468 186.639 98.1146 185.258 98.693 184.568C99.7553 183.332 101.287 182.445 102.609 181.503C104.13 180.445 105.585 179.426 107.106 178.368C108.333 177.569 109.412 179.434 108.223 180.299Z" fill="#ED5C01"/>
<path d="M70.5594 71.8676C70.4746 73.8721 70.4179 75.7716 70.3332 77.7761C70.266 79.5038 70.2093 81.4033 69.5499 83.0291C69.0694 84.196 67.3874 83.7469 67.0478 82.6989C66.5332 81.0411 66.8282 79.0927 67.0005 77.393C67.1623 75.5217 67.3241 73.6503 67.4859 71.779C67.5041 69.8129 70.6722 69.7579 70.5594 71.8676Z" fill="#ED5C01"/>
<path d="M143.019 82.037C143.828 83.4355 141.697 84.6684 140.888 83.2699C140.117 81.9379 142.248 80.705 143.019 82.037Z" fill="#ED5C01"/>
</svg>
