<svg width="133" height="144" viewBox="0 0 133 144" fill="none" xmlns="http://www.w3.org/2000/svg">
<path d="M38.4997 101.077C36.769 105.577 38.1536 108 41.269 110.423C45.0767 113.885 48.5382 116.308 54.769 115.269C62.3844 114.231 69.6536 123.577 65.8459 129.808C63.0767 134.308 58.9228 138.808 54.769 142.269C48.8843 147.115 38.8459 141.231 39.192 133.269C39.192 127.385 36.769 124.269 32.6151 120.808C25.3459 114.577 18.0767 108.346 11.1536 101.769C9.07665 99.6923 6.99973 99 3.88434 99.6923C-2.69258 100.731 -7.19258 98.6538 -9.61566 93.4615C-12.0387 88.6153 -10.308 83.423 -5.80797 81C-4.76951 80.3076 -3.38489 79.6153 -3.03874 78.5769C-2.00027 74.0769 0.768958 71.6538 5.61511 71.6538C10.1151 71.6538 14.9613 74.7692 16.3459 78.923C16.692 79.9615 17.0382 81 17.0382 82.0384C15.3074 90 21.5382 93.1153 26.3843 96.923C27.769 97.9615 30.5382 97.2692 33.6536 97.2692C29.8459 93.4615 29.1536 90.6923 31.9228 87.2307C32.6151 86.5384 31.5767 84.1153 30.5382 82.7307C24.3074 74.423 17.7305 66.1153 11.8459 57.8077C9.76896 54.6923 8.38434 50.8846 6.99973 47.0769C3.53819 37.7307 4.2305 29.423 11.8459 22.1538C16.692 17.6538 20.8459 12.8076 24.6536 7.61534C29.8459 0.692264 36.4228 -1.0385 44.3843 -4.31412e-05C55.1151 1.38457 65.1536 5.88457 74.1536 11.423C95.6151 24.923 113.961 41.5384 126.769 63.6923C128.154 66.4615 129.538 69.2307 130.577 72.3461C134.384 82.3846 134.384 91.3846 125.731 99.3461C120.884 103.846 116.73 109.385 112.23 114.577C108.423 119.423 103.231 121.154 97.692 120.808C85.2305 120.462 74.4997 115.269 64.1151 109.038C59.9613 106.615 55.8074 103.5 51.6536 101.077C50.6151 100.385 48.192 100.038 47.4997 100.731C44.7305 104.192 41.9613 103.846 38.4997 101.077ZM94.9228 68.5384C95.269 68.1923 95.6151 68.1923 95.9613 67.8461C96.6536 68.5384 97.692 69.2307 98.3844 70.2692C103.231 78.5769 108.077 87.2307 112.923 95.5384C113.615 96.5769 114.307 97.9615 115.346 98.3076C123.307 100.385 131.269 94.1538 130.923 85.8461C130.577 81 129.538 75.8076 127.461 70.9615C121.577 56.423 111.538 44.6538 100.115 33.923C85.9228 20.7692 70.3459 9.69227 51.3074 4.1538C46.8074 2.76919 41.6151 2.42303 36.769 2.76919C28.4613 3.4615 23.269 11.423 26.0382 19.3846C26.3843 20.423 27.769 21.4615 28.8074 21.8077C54.769 28.0384 74.8459 44.3076 92.4997 63.3461C93.192 64.0384 93.192 64.7307 93.8844 65.7692C74.4997 46.7307 54.4228 29.7692 27.0767 23.1923C33.6536 52.6153 83.8459 95.5384 111.192 96.923C108.423 86.1923 101.154 77.5384 94.9228 68.5384ZM22.9228 12.8076C19.1151 16.9615 15.9997 20.7692 12.5382 24.2307C6.99973 29.7692 5.96126 36.3461 8.38434 43.6153C10.1151 48.4615 11.8459 53.3077 14.269 57.4615C23.9613 74.7692 37.8074 88.2692 53.3844 100.038C64.1151 108 75.5382 114.577 88.692 117.692C103.231 121.5 115.692 114.577 120.538 101.423C112.923 99.6923 104.615 98.3077 96.9997 95.5384C80.0382 89.3077 65.4997 78.5769 52.692 65.7692C38.4997 51.2307 24.9997 35.6538 22.9228 12.8076ZM-1.30797 82.0384C-7.19258 83.423 -9.26951 85.1538 -8.92335 89.3076C-8.5772 93.4615 -5.46181 97.2692 -0.961812 97.9615C0.422803 98.3076 1.80742 98.3076 3.19203 97.9615C6.99973 96.923 10.1151 98.3077 13.2305 101.077C20.4997 107.654 27.4228 113.885 34.692 120.115C38.8459 123.577 41.269 127.038 40.9228 132.577C40.5767 137.769 45.0767 141.577 49.9228 141.923C54.0767 141.923 56.1536 139.5 56.8459 133.269C60.9997 132.577 64.4613 131.192 64.4613 126.346C64.4613 122.192 60.9997 118.038 56.8459 117.692C55.4613 117.346 53.7305 117.346 52.3459 117.692C48.5382 118.731 45.769 117.346 42.9997 114.923C36.4228 108.692 29.4997 102.808 22.5767 96.923C17.7305 93.1153 13.9228 89.3077 14.6151 82.0384C14.9613 77.5384 10.1151 73.7307 5.61511 73.7307C1.11511 73.7307 -0.615659 76.1538 -1.30797 82.0384ZM35.0382 87.5769C31.2305 91.0384 31.5767 93.1153 35.3843 95.1923C36.769 95.8846 38.1536 96.923 38.8459 98.3076C41.6151 102.115 44.0382 102.115 46.1151 97.6153C42.6536 94.5 39.192 91.0384 35.0382 87.5769Z" fill="white"/>
<path d="M54.0766 77.1922C56.1536 79.9615 56.8459 82.3845 54.4228 85.1538C51.9997 87.923 49.2305 87.923 46.4613 85.8461C43.692 83.7692 43.692 79.9615 46.1151 77.5384C48.5382 75.1153 51.3074 75.4615 54.0766 77.1922ZM54.0766 84.8076C53.3843 82.0384 53.3843 79.6153 52.3459 78.923C51.3074 78.2307 48.192 78.2307 47.4997 79.2692C46.8074 80.3076 46.8074 83.0768 47.4997 84.1153C48.5382 85.1538 50.9613 84.8076 54.0766 84.8076Z" fill="white"/>
<path d="M25.692 63.346C23.2689 60.923 23.2689 57.8076 25.3459 55.3845C27.7689 52.9614 30.5382 52.6153 33.3074 55.0384C35.7305 57.1153 36.0766 61.2691 33.9997 63.346C31.2305 65.423 28.4613 65.7691 25.692 63.346ZM32.9613 55.3845C30.192 56.0768 27.7689 55.7307 27.0766 57.1153C26.3843 58.1537 26.3843 61.2691 27.4228 61.9614C28.4613 62.6537 31.2305 62.6537 32.2689 61.6153C32.9613 60.5768 32.6151 58.4999 32.9613 55.3845Z" fill="white"/>
<path d="M71.0386 104.192C68.9617 101.769 68.6155 98.9999 71.0386 96.5768C73.4617 94.1537 76.5771 93.8075 79.0002 96.2306C81.4232 98.3075 81.7694 101.423 79.6925 104.192C77.6155 106.269 73.4617 106.615 71.0386 104.192ZM71.3848 103.846C74.154 103.154 76.5771 103.5 77.6155 102.461C78.3079 101.423 77.6155 98.9999 77.6155 97.2691C75.8848 97.2691 73.4617 96.5768 72.4232 97.6152C71.7309 98.6537 72.0771 101.077 71.3848 103.846Z" fill="white"/>
</svg>
