<svg width="186" height="57" viewBox="0 0 186 57" fill="none" xmlns="http://www.w3.org/2000/svg">
<g clip-path="url(#clip0_1_930)">
<path d="M182.261 10.9766C172.419 -6.16194 146.045 -2.69572 141.715 16.7536C141.124 19.6421 145.454 20.7975 146.045 17.909C148.8 6.35495 163.562 -0.384912 173.6 8.28063C181.867 15.4056 181.67 28.1151 176.553 36.9732C166.318 54.6894 136.204 57.3854 120.851 44.6759C121.442 44.0982 121.835 43.3279 122.229 42.7502C125.378 37.936 127.346 26.382 118.293 25.9968C110.813 25.8043 109.632 36.2029 112.388 40.8245C112.978 41.98 113.766 43.1354 114.75 44.0982C110.419 48.1421 104.515 50.2604 98.4131 50.2604C90.1465 50.2604 83.6512 46.409 79.3211 40.8245C87.9814 27.1522 88.7687 15.2131 83.6512 11.1691C80.8957 8.85833 75.975 8.85833 73.0227 10.9766C67.3147 14.6354 66.7243 26.5745 74.0068 40.0543C72.629 41.9799 69.8735 45.4462 64.9528 47.5644C62.9846 48.3347 56.883 51.0306 50.3878 48.3347C46.4512 46.6016 44.2862 43.5205 43.302 41.9799C44.6798 40.4394 45.8608 38.7063 46.6481 36.7806C49.2068 31.3887 49.6004 19.4495 41.9243 17.3313C34.2481 15.4056 28.9338 25.034 29.7211 31.1962C30.3116 35.6252 32.2798 39.6691 35.2322 42.9428C25.7846 50.0678 11.2195 48.3347 2.75601 39.8617C1.1814 38.3212 -0.983675 40.632 0.394103 42.1725C10.0385 52.186 27.1624 54.1117 38.5782 46.409C47.0417 53.7266 59.8354 56.4225 69.4798 50.6455C71.6449 49.2975 74.0068 47.1793 76.3687 44.6759C86.6036 57.0002 106.483 58.7333 118.096 47.757C129.118 57.1928 148.013 59.1185 160.807 55.0745C179.505 49.4901 192.693 29.2705 182.261 10.9766ZM38.1846 23.3009C38.3814 23.1083 39.7592 21.9529 41.3338 22.3381C44.0893 22.9158 44.6798 27.3448 44.8766 27.9225C45.4671 31.7739 43.6957 34.8549 42.9084 36.2029C42.1211 37.7435 41.137 38.7063 40.3497 39.4766C39.5624 38.5137 38.7751 36.9732 37.9877 35.0475C37.2004 33.1218 36.4131 31.1962 36.4131 28.6928C36.2163 27.5374 36.4131 24.8414 38.1846 23.3009ZM72.2354 21.1827C72.2354 16.1759 73.81 14.8279 74.5973 14.2502C75.7782 13.48 77.5496 13.0948 78.9274 13.8651C80.8957 14.8279 81.2893 17.1387 81.4862 18.4867C82.8639 25.2266 77.9433 33.8921 76.1719 36.5881C72.629 29.6556 72.2354 24.0712 72.2354 21.1827ZM120.064 32.5441C120.261 34.0847 120.064 37.1658 117.308 41.2097C116.521 40.0543 114.946 37.7435 114.946 34.6624C114.946 33.6995 114.946 31.7739 116.324 30.4259C116.521 30.2333 117.899 28.8854 118.883 29.2705C119.867 29.8482 120.064 31.5813 120.064 32.5441Z" fill="#EBE3CC"/>
</g>
<defs>
<clipPath id="clip0_1_930">
<rect width="186" height="57" fill="white"/>
</clipPath>
</defs>
</svg>
