<svg width="35" height="37" viewBox="0 0 35 37" fill="none" xmlns="http://www.w3.org/2000/svg">
<path d="M34.9449 18.6882C34.9449 8.77046 27.166 0.811768 17.4724 0.811768C7.77882 0.811768 0 8.77046 0 18.6882C0 27.6264 6.34273 35.0954 14.7199 36.4422V23.8307H10.292V18.6882H14.7199V14.7701C14.7199 10.2398 17.3528 7.79093 21.302 7.79093C23.2168 7.79093 25.2513 8.15825 25.2513 8.15825V12.5661H23.0971C20.943 12.5661 20.2249 13.913 20.2249 15.3823V18.6882H25.1316L24.4135 23.8307H20.3446V36.3198C28.6021 35.0954 34.9449 27.6264 34.9449 18.6882Z" fill="white"/>
<path d="M24.2969 23.8332L25.0149 18.6906H20.1083V15.3847C20.1083 13.9154 20.8263 12.5685 22.9804 12.5685H25.1346V8.16066C25.1346 8.16066 23.1001 7.79333 21.1853 7.79333C17.2361 7.79333 14.6033 10.2422 14.6033 14.7725V18.6906H10.295V23.8332H14.7229V36.3222C15.5606 36.4446 16.518 36.5671 17.4754 36.5671C18.4328 36.5671 19.2705 36.4446 20.2279 36.3222V23.8332H24.2969Z" fill="#062D3E"/>
</svg>
