<svg width="70" height="74" viewBox="0 0 70 74" fill="none" xmlns="http://www.w3.org/2000/svg">
<g clip-path="url(#clip0_1_771)">
<path fill-rule="evenodd" clip-rule="evenodd" d="M49.3523 43.1446C53.6662 42.5811 57.7505 40.3016 61.4773 36.3189C61.7425 36.0547 61.9419 35.7315 62.0594 35.3755C62.1769 35.0195 62.2093 34.6408 62.1538 34.27C67.0357 28.3536 69.984 20.1513 69.984 13.8955C69.984 4.21408 65.3318 3.18958 57.7313 1.59522H57.6165C57.3914 1.12141 57.0381 0.720665 56.5969 0.438737C56.1557 0.156809 55.6443 0.00507654 55.1212 0.000872871C54.7391 -0.0146877 54.3577 0.0475591 54.0001 0.183851C53.6426 0.320142 53.3162 0.527665 53.0407 0.793906C52.7652 1.06015 52.5463 1.3796 52.3972 1.73301C52.248 2.08641 52.1718 2.46646 52.1729 2.85024C52.1729 4.32934 53.4173 5.46908 55.1212 5.46908C55.7335 5.45619 56.3276 5.2575 56.8251 4.8992C64.3108 6.49356 66.3593 6.94818 66.3593 13.8955C66.3593 19.3573 63.5131 26.7592 59.3395 32.1058C58.9727 32.1026 58.6099 32.1827 58.2784 32.3402C57.9468 32.4977 57.6551 32.7283 57.425 33.015C55.1531 35.2945 51.7517 38.1374 47.5526 38.1374C43.4684 38.1374 39.9521 35.2945 37.7951 33.015C37.2821 32.4972 36.6049 32.1756 35.8806 32.1058C31.6815 26.7592 28.8609 19.3573 28.8609 13.8955C28.8609 6.94818 30.7754 6.49356 38.2801 4.8992C38.8204 5.25816 39.4511 5.4558 40.0989 5.46908C40.8342 5.50943 41.5557 5.25699 42.1066 4.76662C42.6574 4.27625 42.9932 3.58758 43.0408 2.85024C43.0241 2.08201 42.7055 1.35153 42.1545 0.817863C41.6035 0.284196 40.8647 -0.00944405 40.0989 0.000872871C39.56 0.00503816 39.0322 0.155448 38.5716 0.436139C38.111 0.716829 37.7346 1.11733 37.4824 1.59522C29.7734 3.18958 25.1212 4.21408 25.1212 13.8955C25.1212 20.1513 28.1844 28.3536 33.06 34.3852C33.022 34.7277 33.0533 35.0744 33.152 35.4044C33.2507 35.7345 33.4147 36.0412 33.6343 36.3061C37.374 40.2888 41.3433 42.5641 45.5424 43.1318L45.4276 55.2976C45.4276 63.724 38.1653 70.556 29.2055 70.556C20.2457 70.556 12.8685 63.724 12.8685 55.2976V44.6237C18.0887 43.8297 22.0581 39.6229 22.0581 34.4941C22.0581 28.917 17.0676 24.2492 11.0498 24.2492C5.03189 24.2492 0.0478516 28.9106 0.0478516 34.4941C0.0478516 39.6165 4.01722 43.8297 9.23738 44.6237V55.3296C9.23738 65.6897 18.1717 74.0009 29.2055 74.0009C40.2393 74.0009 49.1736 65.6769 49.1736 55.3296V43.1638L49.3523 43.1446Z" fill="#062D3E"/>
<path fill-rule="evenodd" clip-rule="evenodd" d="M11.0045 41.4414C12.8851 41.4844 14.706 40.7771 16.0675 39.4746C17.429 38.1722 18.2199 36.381 18.2668 34.4941C18.2668 30.7419 14.9738 27.6685 11.0045 27.6685C6.92024 27.6685 3.74219 30.7419 3.74219 34.4941C3.74219 38.3679 6.933 41.4414 11.0045 41.4414Z" fill="#FBBD08"/>
</g>
<defs>
<clipPath id="clip0_1_771">
<rect width="70" height="74" fill="white" transform="translate(0.00292969 0.000976562)"/>
</clipPath>
</defs>
</svg>
