<svg width="122" height="31" viewBox="0 0 122 31" fill="none" xmlns="http://www.w3.org/2000/svg">
<path d="M120.628 20.2101C120.738 20.5247 120.4 20.3311 120.234 20.2766C119.581 20.0064 118.962 19.6612 118.391 19.2481C117.287 18.5058 116.097 17.8965 114.845 17.4331C113.648 17.114 112.518 16.5875 111.509 15.8783C111.278 15.7412 111.03 15.6335 110.771 15.5576C110.702 15.5249 110.625 15.512 110.549 15.5206C110.473 15.5292 110.401 15.5588 110.341 15.606C110.32 15.6338 110.305 15.666 110.298 15.7002C110.291 15.7344 110.292 15.7698 110.3 15.8036C110.309 15.8375 110.326 15.8689 110.349 15.8954C110.372 15.922 110.401 15.943 110.433 15.9569C111.048 16.3381 111.048 16.8463 111.423 17.3061C111.093 17.2 110.771 17.0727 110.458 16.9249C109.727 16.6708 108.946 16.2715 108.258 16.3199C107.341 16.3939 106.418 16.2529 105.567 15.9085C104.602 15.5419 103.545 15.4806 102.544 15.7331C102.163 15.8238 100.43 15.4669 100.289 15.2067C99.9936 14.6683 99.5081 14.6381 98.9428 14.6018C98.344 14.5564 97.7535 14.4364 97.1854 14.2448C95.9558 13.866 94.6925 13.6027 93.4125 13.4583C93.0282 13.4174 92.6466 13.3548 92.2696 13.2708C90.7519 12.8836 89.1665 12.7807 87.6856 12.2483C87.3162 12.1328 86.9234 12.11 86.5427 12.1818C86.2545 12.2363 85.9584 12.2363 85.6701 12.1818C84.5056 11.9206 83.3125 11.8027 82.1185 11.8309C80.8588 11.8309 79.5377 11.601 78.3886 11.9761C79.0031 12.1334 79.7712 12.2181 79.8879 12.8775L78.6037 12.7989C78.0752 12.7626 77.5836 12.7263 77.6266 12.1939C77.6289 12.14 77.6192 12.0864 77.5982 12.0366C77.5771 11.9869 77.5453 11.9423 77.5049 11.906C77.4645 11.8697 77.4165 11.8425 77.3643 11.8264C77.3121 11.8103 77.2569 11.8056 77.2027 11.8127C76.8708 11.8127 76.6496 11.964 76.7172 12.2181C76.834 12.6537 76.2932 12.5871 76.1396 12.454C75.6972 12.0729 75.3101 12.2846 74.9107 12.3996C74.6071 12.5166 74.2843 12.5781 73.9582 12.5811C72.3852 12.4661 70.8859 12.8775 69.3558 12.9562C70.2898 13.3192 71.1992 13.658 72.2807 13.2768C72.6764 13.1441 73.0916 13.0767 73.5097 13.0772C75.8508 13.0772 78.192 13.1498 80.527 13.3131C80.6952 13.3182 80.8622 13.3425 81.0247 13.3857C82.2188 13.7566 83.4599 13.9603 84.7116 13.9907C85.1325 13.9634 85.554 14.0361 85.9405 14.2025C84.8713 14.6199 83.8267 14.269 82.8128 14.2025C81.6945 14.1238 80.5639 14.0452 79.4455 14.0754C78.3081 14.0173 77.1676 14.072 76.0413 14.2388L78.0752 14.511C77.6146 14.6187 77.1413 14.6655 76.6681 14.6501C75.8017 14.5533 74.9291 14.5231 74.0565 14.505C73.568 14.4286 73.0703 14.4286 72.5818 14.505C71.7602 14.7259 70.914 14.8458 70.0625 14.8619C69.448 14.9284 68.9011 14.8014 68.3542 14.8619C66.4063 15.1583 64.3663 15.0252 62.4614 15.5576C62.2637 15.6231 62.055 15.6498 61.8469 15.6363C60.8392 15.5274 59.8806 15.8964 58.8851 15.9025C58.5103 15.9025 57.8037 15.9025 58.3444 16.453C58.4612 16.5619 58.2645 16.6406 58.1171 16.7071C57.7012 16.8866 57.2497 16.9714 56.796 16.9552C56.1815 16.9552 56.1077 16.7979 56.4395 16.2594C55.9357 16.3139 55.1553 16.1989 55.1676 16.6285C55.1676 17.2335 54.7866 17.2335 54.2151 17.3303C53.6774 17.4984 53.0947 17.4573 52.5868 17.2153C51.8986 16.7313 51.6159 16.7253 50.7433 16.9854C49.8708 17.2456 49.1641 17.5904 48.2056 17.421C47.8246 17.3424 47.1671 17.421 47.0135 17.9232C46.9275 18.2075 46.6202 18.3164 46.2761 18.3769L44.4327 18.6794C44.8444 18.2559 44.9304 17.9716 44.1685 18.0744C43.6309 18.0873 43.0967 18.1625 42.577 18.2983C41.9394 18.4975 41.2885 18.6532 40.6291 18.7641C38.5522 19.1453 36.4691 19.5143 34.595 19.9257C35.8669 19.4538 37.4523 19.3207 38.8594 18.6371C37.6673 19.1695 36.4445 18.994 35.2524 19.2421C36.254 18.9638 37.2864 18.7581 38.3248 18.5282C38.7918 18.4374 39.1175 18.3043 38.5767 18.0321C38.5092 17.9958 38.5399 17.8748 38.5092 17.7356C39.9751 17.6317 41.42 17.3325 42.8043 16.8463C42.5998 16.6725 42.3447 16.5667 42.0755 16.5439C41.8064 16.5211 41.5367 16.5824 41.305 16.7192C40.4509 17.1427 39.3326 16.9673 38.503 17.536C38.4096 17.5891 38.3036 17.617 38.1958 17.617C38.0879 17.617 37.9819 17.5891 37.8885 17.536C37.7698 17.505 37.6457 17.4998 37.5248 17.5207C37.4038 17.5416 37.2889 17.5881 37.188 17.657C36.3155 18.0926 35.3815 17.9474 34.4844 18.0865C34.4159 18.1063 34.3423 18.0998 34.2785 18.0684C34.2147 18.0369 34.1653 17.9829 34.1403 17.9171C34.1403 17.784 34.2815 17.6993 34.4536 17.657L37.526 16.937C38.3924 16.7313 39.3326 16.6769 40.0761 16.1687C38.6935 16.2352 37.4215 16.9612 35.9591 16.9794C36.2909 16.4833 37.1143 15.9932 35.8546 15.9388C35.9775 15.7694 36.1434 15.4971 35.7686 15.5516C34.8776 15.6847 34.0726 15.3338 33.1509 15.7331C32.856 15.8769 32.5208 15.9195 32.1985 15.8541C32.1985 15.4548 33.0096 15.6363 33.0772 15.1583C31.2338 15.5697 29.4272 15.721 27.6022 16.09C28.4441 15.5213 29.8205 15.5576 30.3059 14.5533C29.7185 14.5443 29.1335 14.628 28.5731 14.8014C26.6129 15.5455 24.5729 16.0114 22.5758 16.6164C21.6603 16.8644 20.7324 17.3545 19.8291 17.3968C18.9375 17.5468 18.0752 17.8326 17.2729 18.2438C16.8727 18.4382 16.4625 18.6119 16.0439 18.7641C14.01 19.236 12.4861 20.6941 10.6304 21.5048C10.5928 21.5272 10.5578 21.5536 10.5259 21.5834C9.53662 22.2913 8.54119 23.0051 7.62562 23.7977C6.24305 25.0077 4.68844 25.9999 3.41033 27.3188C2.43094 28.4122 1.27949 29.3437 0 30.0776C1.17979 29.043 2.00317 28.0387 3.01091 27.1978C4.28777 25.9338 5.66895 24.7763 7.1402 23.7372C7.21088 23.6977 7.26969 23.6406 7.3107 23.5715C7.3517 23.5024 7.37345 23.4239 7.3737 23.3439C7.3737 23.1927 7.20779 23.1987 7.02345 23.2895C6.83911 23.3802 6.50114 23.5799 6.40897 23.3681C6.3168 23.1564 6.6179 22.9265 6.86983 22.7631C7.79154 22.1098 8.75625 21.5532 9.6964 20.9482C12.6582 19.1332 15.8411 17.7356 18.975 16.2534C20.8184 15.4064 22.6249 14.5836 24.5052 13.8879C25.2462 13.6732 25.9344 13.3108 26.5269 12.8231C24.96 13.1679 23.6204 13.8032 22.2256 13.9C22.7663 13.6943 23.1718 13.3494 23.6696 13.1498C24.2099 12.9331 24.783 12.8063 25.3655 12.7747C25.599 12.7747 25.8079 12.5871 25.8141 12.4238C25.8141 11.8188 26.5269 11.601 27.1659 11.3771C27.6759 11.1956 28.2167 11.0686 28.739 10.9294C29.3965 10.754 30.0355 10.5906 30.3243 10.034C30.4841 9.73153 30.9388 9.66498 31.3628 9.55003C32.1562 9.38767 32.932 9.15064 33.6794 8.84219C34.343 8.49129 35.0865 8.18274 35.8669 7.74714L35.1603 7.83184C34.2754 7.91049 34.2816 7.87419 34.4229 7.2692C34.4966 6.9546 34.8837 6.91225 35.1172 6.7489C35.3507 6.58555 35.406 6.5674 35.3384 6.4464C35.2709 6.3254 35.0865 6.3738 34.9022 6.39195C32.6156 6.67629 30.3662 7.19954 28.1921 7.95284C26.109 8.55784 24.0628 9.38063 21.8569 10.2579C23.0858 9.26568 24.7818 9.04789 25.7096 8.05569C25.8943 7.9322 26.1039 7.84963 26.3241 7.81369C28.3765 7.26315 30.3121 6.5069 32.2907 5.88981C34.2935 5.37459 36.2633 4.74225 38.1896 3.99617C39.5169 3.42142 41.1145 3.27017 42.5708 2.85273C43.3021 2.63493 44.1255 2.62888 44.7952 2.24773C45.0978 2.13954 45.4223 2.10427 45.7415 2.14488C46.8476 2.07228 48.0458 2.10253 49.029 1.68508C50.3624 1.08009 52.0153 1.68508 53.2136 0.82599C53.3438 0.805205 53.4766 0.805205 53.6068 0.82599C54.2511 0.886845 54.9008 0.856282 55.5362 0.735239C57.6378 0.414591 59.8376 0.644491 61.8961 0.0152948C62.0681 -0.0391548 62.3446 0.0697433 62.5782 0.0636933C63.9239 0.0636933 65.2142 0.372243 66.6398 0.124194C67.2811 0.0205895 67.9369 0.0432092 68.5693 0.190744C69.1635 0.311786 69.7741 0.334279 70.3758 0.257294C72.0538 0.155456 73.7375 0.195937 75.4084 0.378292C77.6635 0.523491 79.9309 0.85624 82.1676 1.16479C84.6808 1.50964 87.2063 1.89078 89.7195 2.37478C89.6826 2.63493 89.3631 2.56838 89.0067 2.53208C88.2202 2.45948 87.5627 2.09648 86.7885 2.01783C83.9189 1.74558 81.0984 1.26764 78.2411 1.08009C77.5814 1.02484 76.9175 1.04515 76.2625 1.14059C77.0161 1.40048 77.8118 1.52148 78.6098 1.49754C79.3689 1.47322 80.1272 1.56299 80.8588 1.76373C81.6845 1.96594 82.5247 2.1055 83.372 2.18118C85.4542 2.40625 87.5207 2.75578 89.5598 3.22782C91.8641 3.77232 94.0024 4.69796 96.3559 5.16986C96.4112 5.16986 96.4603 5.26666 96.5218 5.33321C96.3436 5.39371 96.1531 5.44211 95.9872 5.51471C95.7229 5.63571 95.1453 5.51471 95.2621 5.94426C95.3788 6.3738 95.8397 6.4706 96.2698 6.54925C98.9244 7.20265 101.235 8.54574 103.809 9.39273C104.025 9.46533 104.19 9.59843 104.043 9.76783L99.4897 8.37634C98.4182 7.94869 97.2869 7.68351 96.1346 7.58985C95.7672 7.55902 95.4129 7.44067 95.1023 7.245C94.8725 7.09758 94.6122 7.0025 94.3404 6.9667C93.1522 6.80716 91.976 6.5707 90.8195 6.25885C90.6542 6.19227 90.475 6.16629 90.2973 6.18315C90.1196 6.20002 89.9487 6.25922 89.7994 6.35565C90.0329 6.6884 90.4139 6.69445 90.7826 6.7731C92.4908 7.1603 94.199 7.54145 95.8643 8.06174C96.8069 8.36007 97.7321 8.70949 98.6356 9.10839C99.7969 9.59843 101.063 10.034 102.322 10.4757C103.065 10.7083 103.793 10.9831 104.504 11.2985C107.447 12.6234 110.434 13.8637 113.322 15.3096C114.004 15.6665 114.686 16.1626 115.509 16.1626C115.636 16.2037 115.756 16.2628 115.865 16.3381L119.896 18.5766C120.5 18.8683 121.057 19.2454 121.549 19.6958C121.119 19.8713 120.376 19.5204 120.628 20.2101ZM43.683 15.4971C43.3328 15.237 43.0317 15.4185 42.6569 15.6786C42.826 15.7565 43.0155 15.7809 43.1992 15.7484C43.383 15.7159 43.552 15.6281 43.683 15.4971V15.4971ZM39.8733 5.13961C40.7581 5.43001 41.5447 5.01861 42.3312 4.83106C41.921 4.72079 41.4928 4.69129 41.071 4.74423C40.6493 4.79718 40.2422 4.93154 39.8733 5.13961V5.13961ZM44.1746 16.4288C44.0026 16.7192 44.6416 16.7918 44.4143 17.1246C44.3344 17.2456 44.617 17.3303 44.8444 17.2758C45.0718 17.2214 45.3483 17.058 45.2745 16.9854C44.8075 16.5438 45.4589 16.568 45.76 16.3804C46.0611 16.1929 46.4912 16.1687 46.4973 15.8359C45.7186 15.9823 44.9508 16.1803 44.1992 16.4288H44.1746ZM46.7739 14.9103C46.6973 14.8975 46.6187 14.908 46.5484 14.9405C46.4781 14.9729 46.4196 15.0257 46.3806 15.0918C46.313 15.2249 46.4236 15.2975 46.6325 15.2733C46.8414 15.2491 46.9397 15.1946 46.9766 15.0797C47.0135 14.9647 46.909 14.9284 46.7984 14.9103H46.7739ZM48.4268 15.4608C47.9414 15.3398 47.4375 15.1765 47.0258 15.6665C46.9631 15.7407 46.8822 15.798 46.7909 15.8329C46.6995 15.8678 46.6006 15.8793 46.5035 15.8662C47.0928 16.0997 47.7486 16.1126 48.3469 15.9025C48.4465 15.8665 48.5338 15.8036 48.5988 15.721C48.734 15.5818 48.5988 15.4971 48.4514 15.4608H48.4268ZM54.7928 14.753C55.5916 14.626 56.3228 14.9889 56.8943 14.39C56.5543 14.223 56.1689 14.1682 55.7948 14.2335C55.4208 14.2989 55.0781 14.481 54.8173 14.753H54.7928ZM62.3631 13.6943C64.3786 13.6943 67.7336 13.4825 68.5693 13.1982C66.4954 13.0807 64.4149 13.2477 62.3877 13.6943H62.3631ZM73.0181 11.728C72.846 11.728 72.6801 11.728 72.674 11.8732C72.6678 12.0184 72.7846 12.0184 72.9136 12.0245C73.0427 12.0305 73.2516 12.0245 73.2577 11.8853C73.2639 11.7462 73.1779 11.7401 73.0427 11.728H73.0181Z" fill="#ED5C01"/>
</svg>
