<svg width="327" height="96" viewBox="0 0 327 96" fill="none" xmlns="http://www.w3.org/2000/svg">
<mask id="mask0_1_739" style="mask-type:alpha" maskUnits="userSpaceOnUse" x="0" y="0" width="327" height="96">
<g clip-path="url(#clip0_1_739)">
<path d="M46.9812 52.9745C52.152 53.6094 57.1086 47.8949 58.0521 40.2107C58.9956 32.5266 55.5687 25.7827 50.3979 25.1478C45.2271 24.5129 40.2705 30.2274 39.327 37.9115C38.3835 45.5957 41.8104 52.3396 46.9812 52.9745Z" fill="#FBB03B"/>
<path d="M200.229 58.1024C209.161 59.1438 215.911 64.1693 215.313 69.3301C214.714 74.4908 207.981 69.753 199.049 68.7117C190.118 67.6704 182.369 70.7234 182.97 65.5716C183.57 60.4198 191.296 57.0726 200.229 58.1024Z" fill="#FBB03B"/>
<path d="M107.112 51.9397C108.822 47.8618 107.341 43.3583 103.803 41.881C100.266 40.4036 96.0124 42.5118 94.3024 46.5898C92.5924 50.6677 94.0737 55.1712 97.611 56.6485C101.148 58.1258 105.402 56.0176 107.112 51.9397Z" fill="#FBB03B"/>
<path d="M298.898 60.5829C301.162 57.7592 300.702 53.6377 297.869 51.3771C295.036 49.1166 290.904 49.5732 288.639 52.3968C286.375 55.2205 286.835 59.3421 289.668 61.6026C292.501 63.8631 296.633 63.4066 298.898 60.5829Z" fill="#FBB03B"/>
<path d="M322.152 74.3175C322.3 72.5871 322.399 70.8739 322.441 69.1771C322.628 61.1301 321.453 53.6095 317.531 49.1148C317.141 48.6608 316.716 48.2374 316.26 47.8484C315.854 47.4957 315.424 47.1703 314.974 46.8744C299.461 36.7656 285.508 41.7059 280.222 44.2976C276.835 45.9598 273.187 47.3683 269.113 47.0342C268.491 46.9842 267.872 46.8926 267.262 46.7603C266.591 46.6201 265.931 46.4358 265.284 46.2085C263.217 45.4825 260.945 46.2994 258.883 48.5001C257.538 49.9938 256.472 51.7155 255.734 53.5838C255.505 54.1386 255.301 54.7284 255.105 55.3309C253.605 60.0663 253.489 65.8692 255.744 71.0713C256.653 73.188 257.6 75.1346 258.427 76.8535C260.692 81.5644 262.365 85.0486 262.341 88.6683L264.112 88.8857C264.193 84.7514 262.342 80.9045 260.031 76.0889C259.172 74.3018 258.286 72.4559 257.379 70.3657C255.344 65.6831 255.393 60.5043 256.668 56.2107C257.471 56.5627 258.32 56.7957 259.19 56.9021C261.523 57.2002 263.878 56.5635 265.74 55.1318C267.601 53.7 268.817 51.59 269.12 49.2646C269.139 49.1124 269.157 48.9631 269.176 48.8109C273.619 49.1117 277.587 47.5705 281.008 45.8921C286.015 43.4323 299.253 38.7481 314 48.3606C314.374 48.6064 314.732 48.8771 315.069 49.171C308.887 56.2487 297.799 70.8173 302.139 79.9331C304 83.8191 306.388 85.1032 308.446 85.356C308.965 85.4172 309.489 85.4209 310.008 85.3671C313.437 85.007 316.994 82.238 319.923 78.0249C319.149 83.857 318.042 89.6401 316.606 95.3459L318.412 95.5675C319.843 89.8854 321.486 82.0959 322.152 74.3175ZM235.183 62.7062C235.129 61.4573 234.963 60.2157 234.686 58.9964C234.063 56.3071 232.967 53.749 231.449 51.4412C232.478 48.2947 232.67 40.5165 230.015 39.6251C228.37 39.0792 226.009 41.3074 224.218 43.827C219.399 40.2363 213.256 37.7159 206.409 36.8753C199.563 36.0346 192.998 36.9976 187.453 39.3156C186.313 36.4333 184.571 33.7013 182.845 33.8333C180.055 34.0415 178.355 41.6492 178.593 44.9512C176.573 46.8171 174.898 49.0222 173.643 51.4662C173.084 52.567 172.623 53.7149 172.266 54.8964C172.009 55.725 171.808 56.5697 171.663 57.425C171.609 57.7272 171.565 58.0337 171.527 58.3438C171.397 59.4012 171.349 60.4671 171.384 61.532C171.53 65.2229 172.595 68.8202 174.483 71.9992C173.522 73.7931 172.716 75.6656 172.074 77.5963L173.876 77.8176C174.355 76.4226 174.926 75.0606 175.584 73.7402C175.805 73.2924 176.037 72.8546 176.281 72.421C176.353 72.2855 176.39 72.1336 176.386 71.9799C176.382 71.8263 176.339 71.6762 176.26 71.5442C175.992 71.1062 175.745 70.6649 175.514 70.214C174.186 67.7103 173.396 64.9581 173.195 62.1333C174.421 62.3858 175.399 62.229 175.708 61.6346C176.14 60.8132 175.108 59.3838 173.333 58.2769C173.448 57.4324 173.622 56.5968 173.853 55.7762C175.812 56.6258 177.621 56.6702 178.065 55.8212C178.531 54.9254 177.285 53.3414 175.253 52.2089C176.243 50.2907 177.517 48.5323 179.032 46.9927C181.598 44.4146 184.657 42.3752 188.027 40.9948C193.321 38.7684 199.613 37.8447 206.188 38.6521C212.764 39.4595 218.65 41.8814 223.237 45.3211C226.174 47.4741 228.648 50.192 230.514 53.3141C231.627 55.1921 232.444 57.2287 232.938 59.353C230.777 59.9795 229.266 61.1754 229.498 62.1365C229.715 63.0375 231.384 63.4377 233.417 63.1365C233.442 64.002 233.405 64.8682 233.307 65.7283C231.424 66.3716 230.171 67.465 230.378 68.3473C230.524 68.9685 231.358 69.3419 232.516 69.4287C231.636 72.1163 230.204 74.5915 228.313 76.6969C227.98 77.0757 227.632 77.445 227.271 77.8047C227.161 77.9127 227.081 78.048 227.041 78.1967C227 78.3454 227.001 78.5021 227.041 78.6508C227.169 79.13 227.285 79.6134 227.395 80.1019C227.714 81.5423 227.938 83.0018 228.065 84.4713L229.865 84.6922C229.709 82.6636 229.38 80.6518 228.882 78.6787C231.471 76.0656 233.371 72.8538 234.413 69.3295C234.713 68.2907 234.93 67.2296 235.06 66.1564C235.095 65.8693 235.132 65.5678 235.148 65.2754C235.216 64.4207 235.228 63.5625 235.183 62.7062ZM128.228 19.2873C113.887 17.0834 105.408 23.9723 100.801 30.2352C94.6253 36.9552 84.9239 48.3949 85.1232 53.8169C85.3462 59.9266 87.8112 61.7243 89.1152 62.2429C89.3337 63.0295 89.6084 63.7995 89.9369 64.5471C90.3728 65.542 90.7284 66.5699 91.0002 67.6212L92.9004 67.8545C92.5837 66.4769 92.1373 65.132 91.5671 63.8379C91.2778 63.1793 91.0358 62.5009 90.8431 61.8081C90.764 61.5244 90.6967 61.2393 90.6352 60.9548C88.937 53.0786 93.9324 45.5025 96.4752 41.6442C97.2622 40.4469 97.7798 39.6594 97.9906 39.0849C99.3069 35.5045 106.882 17.7942 127.97 21.0334C138.537 22.6573 144.151 28.9684 146.998 33.9811C151.464 41.8358 152.05 51.6272 150.033 56.5527C146.559 65.047 140.496 70.1285 135.933 68.3762C133.935 67.6121 132.648 66.4311 131.992 64.7768C130.764 61.6359 131.819 56.6623 135.129 50.0072C141.4 37.371 137.18 32.2306 136.999 32.016C136.925 31.927 136.834 31.8536 136.731 31.8002C136.628 31.7468 136.515 31.7145 136.399 31.7052C136.284 31.6959 136.167 31.7097 136.057 31.7459C135.947 31.7822 135.845 31.84 135.758 31.9161C135.578 32.0665 135.465 32.2813 135.443 32.5141C135.421 32.747 135.492 32.9791 135.64 33.1606C135.676 33.2029 139.222 37.765 133.536 49.2229C129.942 56.458 128.898 61.7681 130.335 65.4418C131.162 67.5601 132.827 69.1111 135.286 70.0541C137.684 70.9722 140.321 70.5063 142.864 68.9096C142.519 70.2224 142.112 71.9648 141.809 73.886L143.585 74.1041C143.97 71.723 144.527 69.3729 145.252 67.0724C145.252 67.0724 145.255 67.0552 145.256 67.0466C147.721 64.7467 149.975 61.3863 151.667 57.2458C153.81 52.0036 153.438 41.7693 148.529 33.1315C145.492 27.7751 139.504 21.0186 128.228 19.2873ZM96.3133 38.4885C95.9253 39.25 95.4808 39.9816 94.9837 40.6771C92.4688 44.498 87.6756 51.7609 88.6134 59.7128C87.8474 58.8115 87.0173 57.0745 86.8927 53.7572C86.7682 50.4399 91.5837 43.5908 96.7898 37.2734C96.5827 37.7696 96.4129 38.1772 96.3133 38.4885ZM66.5654 43.9666C67.6903 34.8049 65.7392 26.0611 61.6203 19.0738C61.7029 18.7643 61.764 18.4495 61.8032 18.1316C62.204 14.8671 60.8631 7.128 58.0733 6.78546C56.7288 6.62037 55.3023 8.19382 54.1418 10.243C49.9753 6.75104 44.8831 4.53938 39.4829 3.87631C34.0828 3.21324 28.6067 4.12726 23.7192 6.50746C23.0799 4.24026 22.0769 2.36558 20.741 2.20155C17.9483 1.85865 14.7746 9.04637 14.3741 12.3079C14.3343 12.6247 14.3166 12.9439 14.3211 13.2632C8.6424 19.0504 4.62563 27.0585 3.50034 36.2231C2.68482 42.6535 3.42276 49.1862 5.65262 55.2764C5.23119 55.8367 4.82574 56.4096 4.43627 56.9952L6.39976 57.2363C6.70423 56.8035 7.0194 56.3788 7.34526 55.9622C7.37488 55.9224 7.40239 55.881 7.42769 55.8382C7.43875 55.8147 7.44854 55.7906 7.45701 55.7661L7.46018 55.7402L7.46512 55.7C7.46794 55.6771 7.47041 55.657 7.47287 55.6369C7.47534 55.6168 7.47287 55.6369 7.47534 55.6168C7.48194 55.5876 7.4856 55.5577 7.48627 55.5278L7.51306 55.3096L7.43739 55.1167L7.41964 55.0708C5.16495 49.133 4.40516 42.7352 5.2069 36.4384C6.22466 28.1495 9.6953 20.8526 14.6554 15.4201C17.3203 12.4701 20.5176 10.0461 24.0809 8.27429C28.75 5.91617 34.0181 4.99766 39.2143 5.63569C44.4105 6.27372 49.2999 8.43942 53.2598 11.8571C56.287 14.439 58.8018 17.5642 60.6737 21.0705C64.1722 27.5416 65.7744 35.4614 64.7566 43.7503C64.0096 50.0596 61.723 56.0891 58.097 61.3108C58.0948 61.3192 58.0938 61.3279 58.0938 61.3366C58.0838 61.3538 58.072 61.37 58.0587 61.3848L58.0555 61.4106C58.0526 61.4209 58.0512 61.4315 58.0516 61.4422C58.0277 61.4892 58.0089 61.5387 57.9955 61.5898C57.9935 61.5962 57.9926 61.603 57.9931 61.6098C57.9906 61.6192 57.9894 61.6289 57.9895 61.6386C57.9849 61.6642 57.9818 61.6901 57.98 61.7161L57.9779 61.7333C57.9747 61.7592 57.9719 61.7821 57.9691 61.8051C57.9663 61.8281 57.9627 61.8568 57.9589 61.8884C57.9589 61.9139 57.9606 61.9394 57.9641 61.9647L57.9595 62.0021C57.9595 62.0021 57.956 62.0308 57.969 62.044C57.9824 62.0959 57.9996 62.1467 58.0204 62.1961C58.2357 62.6801 58.4359 63.168 58.6267 63.6607L60.6075 63.9039C60.3732 63.2417 60.1175 62.5867 59.8406 61.9387C63.488 56.5698 65.7938 50.4075 66.5654 43.9666Z" fill="#2D3030"/>
<path d="M47.8793 38.7314C46.9119 38.6126 45.9021 40.3393 45.6264 42.5845C45.3507 44.8297 45.9125 46.7522 46.8798 46.871C47.8472 46.9898 48.8599 45.2635 49.1359 43.0154C49.412 40.7673 48.8495 38.8505 47.8793 38.7314Z" fill="#2D3030"/>
<path d="M22.8839 35.6623C21.9166 35.5435 20.9067 37.2702 20.6311 39.5154C20.3554 41.7606 20.9171 43.6831 21.8845 43.8019C22.8518 43.9207 23.8617 42.194 24.1377 39.946C24.4137 37.6979 23.8541 35.7814 22.8839 35.6623Z" fill="#2D3030"/>
<path d="M37.8506 52.0751C37.617 52.0464 37.3815 52.1114 37.1961 52.2559C37.0106 52.4004 36.8904 52.6124 36.8617 52.8455C36.8472 53.0349 36.7943 53.2194 36.7062 53.3878C36.6182 53.5562 36.4968 53.7051 36.3494 53.8254C36.202 53.9456 36.0317 54.0349 35.8487 54.0877C35.6658 54.1404 35.474 54.1557 35.2849 54.1324C35.0958 54.1092 34.9134 54.0481 34.7486 53.9526C34.5838 53.8571 34.4402 53.7293 34.3263 53.5769C34.2124 53.4246 34.1306 53.2508 34.0859 53.066C34.0412 52.8813 34.0345 52.6895 34.0662 52.5022L34.9782 45.0747L35.3582 45.1213C35.5957 45.1505 35.835 45.0844 36.0235 44.9375C36.212 44.7907 36.3342 44.5752 36.3633 44.3383C36.3923 44.1015 36.3259 43.8628 36.1785 43.6747C36.0312 43.4867 35.815 43.3646 35.5775 43.3355L33.0785 43.0286C32.8411 42.9995 32.6018 43.0656 32.4133 43.2124C32.2248 43.3592 32.1026 43.5748 32.0735 43.8116C32.0444 44.0484 32.1109 44.2871 32.2582 44.4752C32.4056 44.6633 32.6218 44.7853 32.8593 44.8145L33.2278 44.8597L32.3158 52.2873C32.3012 52.4767 32.2483 52.6612 32.1602 52.8296C32.0722 52.998 31.9508 53.1469 31.8034 53.2672C31.6561 53.3875 31.4857 53.4767 31.3028 53.5295C31.1198 53.5823 30.928 53.5975 30.7389 53.5743C30.5498 53.551 30.3674 53.4899 30.2026 53.3944C30.0378 53.2989 29.8942 53.1711 29.7803 53.0188C29.6664 52.8664 29.5846 52.6926 29.5399 52.5079C29.4952 52.3231 29.4885 52.1313 29.5202 51.944C29.5349 51.7177 29.4623 51.4943 29.3172 51.3197C29.1721 51.145 28.9656 51.0322 28.7399 51.0045C28.5142 50.9768 28.2865 51.0362 28.1034 51.1706C27.9204 51.305 27.7959 51.5042 27.7554 51.7273C27.682 52.3551 27.7978 52.9905 28.088 53.5526C28.3781 54.1148 28.8295 54.5781 29.3845 54.8835C29.9395 55.189 30.5731 55.3227 31.2044 55.2677C31.8357 55.2127 32.4361 54.9714 32.9292 54.5746C33.3116 55.0789 33.8358 55.4583 34.435 55.6644C35.0343 55.8705 35.6814 55.894 36.2938 55.7319C36.9063 55.5698 37.4563 55.2294 37.8738 54.7542C38.2913 54.279 38.5574 53.6904 38.6381 53.0636C38.652 52.947 38.6427 52.8289 38.6105 52.7159C38.5784 52.603 38.5242 52.4976 38.4509 52.4057C38.3777 52.3137 38.287 52.2372 38.1839 52.1804C38.0809 52.1237 37.9676 52.0879 37.8506 52.0751Z" fill="#2D3030"/>
<path d="M209.656 69.2009C210.442 69.2973 211.156 68.7405 211.252 67.9572C211.349 67.1739 210.79 66.4607 210.004 66.3643C209.219 66.2678 208.504 66.8246 208.408 67.6079C208.312 68.3913 208.871 69.1045 209.656 69.2009Z" fill="#2D3030"/>
<path d="M188.8 66.6401C189.586 66.7366 190.301 66.1797 190.397 65.3964C190.493 64.6131 189.934 63.8999 189.149 63.8035C188.363 63.707 187.648 64.2638 187.552 65.0472C187.456 65.8305 188.015 66.5437 188.8 66.6401Z" fill="#2D3030"/>
<path d="M292.415 56.2923C293.2 56.3887 293.915 55.8319 294.011 55.0486C294.107 54.2653 293.548 53.5521 292.763 53.4556C291.978 53.3592 291.263 53.916 291.167 54.6993C291.07 55.4827 291.629 56.1958 292.415 56.2923Z" fill="#2D3030"/>
<path d="M284.093 52.6649C284.878 52.7614 285.593 52.2046 285.689 51.4212C285.785 50.6379 285.226 49.9247 284.441 49.8283C283.655 49.7318 282.941 50.2887 282.844 51.072C282.748 51.8553 283.307 52.5685 284.093 52.6649Z" fill="#2D3030"/>
<path d="M305.001 40.6806C306.313 41.2527 307.553 41.3204 307.762 40.8331C307.971 40.3458 307.082 39.4906 305.77 38.9186C304.458 38.3465 303.218 38.2789 303.009 38.7661C302.8 39.2534 303.689 40.1086 305.001 40.6806Z" fill="#2D3030"/>
<path d="M294.034 38.3926C295.449 38.1701 296.526 37.5621 296.441 37.0387C296.357 36.5154 295.145 36.2704 293.732 36.4962C292.319 36.722 291.239 37.3268 291.324 37.8501C291.409 38.3734 292.621 38.6184 294.034 38.3926Z" fill="#2D3030"/>
<path d="M281.8 64.6705C281.6 64.5466 281.358 64.5069 281.129 64.5602C280.9 64.6134 280.701 64.7552 280.576 64.9544C278.705 67.9539 275.273 69.1296 272.034 67.8808C271.924 67.8388 271.807 67.8188 271.689 67.8219C271.571 67.8251 271.455 67.8513 271.348 67.8991C271.24 67.9469 271.143 68.0154 271.062 68.1007C270.981 68.1859 270.918 68.2862 270.876 68.3959C270.834 68.5055 270.814 68.6224 270.817 68.7397C270.82 68.8571 270.847 68.9727 270.895 69.08C270.943 69.1872 271.012 69.284 271.097 69.3648C271.183 69.4456 271.283 69.5088 271.393 69.5508C272.1 69.8264 272.837 70.0148 273.589 70.1119C276.932 70.5223 280.157 68.9832 282.086 65.9093C282.15 65.8096 282.193 65.6982 282.214 65.5816C282.234 65.465 282.23 65.3455 282.204 65.2302C282.177 65.1149 282.128 65.006 282.058 64.9099C281.989 64.8138 281.901 64.7324 281.8 64.6705Z" fill="#2D3030"/>
<path d="M118.905 50.7398C118.623 50.7053 118.338 50.7547 118.085 50.8818C117.832 51.009 117.623 51.2081 117.483 51.4541C117.344 51.7 117.281 51.9817 117.302 52.2636C117.323 52.5454 117.427 52.8148 117.602 53.0376C117.776 53.2604 118.013 53.4265 118.282 53.5151C118.552 53.6038 118.841 53.6108 119.114 53.5353C119.387 53.4599 119.632 53.3054 119.816 53.0914C120.001 52.8773 120.118 52.6133 120.153 52.3328C120.199 51.9566 120.094 51.5775 119.859 51.2787C119.625 50.98 119.282 50.7861 118.905 50.7398Z" fill="#2D3030"/>
<path d="M101.996 48.6637C101.715 48.6286 101.43 48.6775 101.176 48.8042C100.923 48.9309 100.713 49.1298 100.573 49.3757C100.433 49.6215 100.369 49.9033 100.39 50.1853C100.411 50.4673 100.515 50.7369 100.69 50.96C100.864 51.183 101.101 51.3495 101.37 51.4383C101.639 51.5272 101.929 51.5344 102.202 51.459C102.475 51.3837 102.72 51.2292 102.905 51.0151C103.09 50.801 103.207 50.5369 103.241 50.2563C103.288 49.8806 103.182 49.502 102.949 49.2034C102.716 48.9048 102.373 48.7107 101.996 48.6637Z" fill="#2D3030"/>
<path d="M113.116 59.2327C112.882 59.204 112.646 59.2689 112.46 59.4132C112.275 59.5575 112.154 59.7695 112.124 60.0027C112.085 60.3215 111.937 60.617 111.705 60.84C111.474 61.063 111.172 61.1999 110.852 61.2279C110.754 61.237 110.657 61.2357 110.56 61.2241C110.19 61.1779 109.853 60.9874 109.623 60.6943C109.394 60.4012 109.29 60.0293 109.334 59.6602L109.684 56.8149L110.052 56.8602C110.29 56.8885 110.529 56.8221 110.717 56.6754C110.905 56.5287 111.028 56.3137 111.057 56.0772C111.086 55.8405 111.019 55.6022 110.872 55.4143C110.724 55.2265 110.509 55.1042 110.272 55.0743L107.761 54.7661C107.643 54.7516 107.524 54.7603 107.41 54.7918C107.296 54.8233 107.189 54.8769 107.096 54.9496C106.955 55.0591 106.85 55.2077 106.794 55.3768C106.738 55.5458 106.734 55.7276 106.782 55.8991C106.83 56.0707 106.927 56.2243 107.063 56.3405C107.198 56.4567 107.365 56.5302 107.542 56.5519L107.907 56.5968L107.558 59.4421C107.513 59.8114 107.322 60.1475 107.028 60.3765C106.734 60.6055 106.361 60.7086 105.991 60.6631C105.894 60.651 105.799 60.6285 105.707 60.5962C105.402 60.4919 105.142 60.2863 104.97 60.0138C104.799 59.7413 104.727 59.4184 104.765 59.0992C104.78 58.8729 104.707 58.6495 104.562 58.4748C104.417 58.3001 104.211 58.1874 103.985 58.1597C103.759 58.132 103.532 58.1914 103.349 58.3258C103.166 58.4602 103.041 58.6593 103.001 58.8825C102.908 59.6505 103.099 60.4261 103.538 61.0642C103.977 61.7022 104.634 62.1591 105.386 62.3492C105.472 63.8169 106.439 65.0344 107.749 65.1952C109.059 65.356 110.291 64.4087 110.73 63.0053C111.505 63.002 112.252 62.7174 112.832 62.2045C113.412 61.6916 113.785 60.9856 113.88 60.2184C113.908 59.987 113.843 59.7539 113.7 59.5696C113.557 59.3852 113.347 59.2642 113.116 59.2327ZM107.901 64.0248C107.205 63.9393 106.685 63.2664 106.592 62.4069C106.926 62.3656 107.25 62.2684 107.551 62.1195L107.483 62.6707C107.464 62.8265 107.508 62.9834 107.605 63.1071C107.701 63.2308 107.844 63.311 108 63.3302C108.156 63.3494 108.313 63.3059 108.437 63.2093C108.561 63.1128 108.642 62.971 108.661 62.8153L108.722 62.3129C108.975 62.5185 109.259 62.6831 109.563 62.8007C109.256 63.5821 108.592 64.1097 107.893 64.0238L107.901 64.0248Z" fill="#2D3030"/>
<path d="M120.826 44.6398C119.514 44.0678 118.274 44.0001 118.066 44.4845C117.857 44.9689 118.745 45.8298 120.057 46.4019C121.369 46.9739 122.609 47.0416 122.817 46.5543C123.026 46.067 122.143 45.2125 120.826 44.6398Z" fill="#2D3030"/>
<path d="M105.176 42.7591C105.055 42.243 103.83 42.0809 102.435 42.3992C101.04 42.7175 100.004 43.3947 100.122 43.9133C100.239 44.4319 101.47 44.5919 102.866 44.2707C104.261 43.9495 105.294 43.2748 105.176 42.7591Z" fill="#2D3030"/>
<path d="M115.831 26.8141C116.402 25.8554 118.359 25.8859 120.02 26.8739C120.569 27.1964 121.058 27.6115 121.465 28.1005C121.537 28.1978 121.627 28.2796 121.731 28.341C121.835 28.4024 121.951 28.442 122.07 28.4575C122.19 28.473 122.312 28.4639 122.428 28.431C122.544 28.3981 122.653 28.3419 122.746 28.2659C122.84 28.1899 122.917 28.0957 122.973 27.9889C123.029 27.8822 123.063 27.7652 123.072 27.6451C123.081 27.525 123.066 27.4042 123.027 27.2902C122.988 27.1761 122.926 27.0712 122.845 26.9817C122.306 26.333 121.659 25.7823 120.932 25.3538C118.326 23.801 115.414 24.0438 114.304 25.9009C113.998 26.4125 113.853 27.0038 113.888 27.5985C112.1 28.023 110.803 29.155 110.62 30.6508C110.541 31.2862 110.667 31.9301 110.978 32.4901C111.314 33.0863 111.783 33.5969 112.35 33.9816C113.29 34.6241 114.374 35.0246 115.506 35.1473L115.794 35.1827C116.024 35.1923 116.248 35.1132 116.42 34.9619C116.592 34.8106 116.699 34.5989 116.718 34.3708C116.738 34.1427 116.668 33.9159 116.524 33.7377C116.379 33.5596 116.172 33.4438 115.944 33.4146L115.708 33.3856C114.943 33.297 114.207 33.0445 113.549 32.6454C112.905 32.2429 112.466 31.7313 112.372 31.2069C112.351 31.094 112.347 30.9786 112.362 30.8647C112.45 30.1412 113.252 29.5634 114.334 29.3203C114.952 29.1828 115.59 29.1526 116.218 29.2311C116.287 29.2396 116.356 29.248 116.425 29.2565C116.985 29.3399 117.528 29.5109 118.035 29.7631C118.139 29.8223 118.255 29.8598 118.374 29.8733C118.494 29.8869 118.615 29.8762 118.73 29.8419C118.845 29.8076 118.952 29.7504 119.044 29.6738C119.136 29.5972 119.212 29.5027 119.267 29.396C119.322 29.2894 119.354 29.1728 119.363 29.0532C119.371 28.9337 119.355 28.8136 119.316 28.7004C119.276 28.5871 119.214 28.483 119.133 28.3942C119.053 28.3055 118.955 28.2339 118.845 28.1839C118.089 27.8084 117.274 27.5654 116.435 27.4654C116.171 27.4332 115.907 27.4143 115.641 27.4087C115.642 27.312 115.654 27.2157 115.676 27.1216C115.711 27.0115 115.763 26.9076 115.831 26.8141Z" fill="#2D3030"/>
</g>
</mask>
<g mask="url(#mask0_1_739)">
<path d="M-192.996 -415.498C-192.996 -455.104 -158.357 -485.791 -119.04 -481.017L288.96 -431.47C322.09 -427.447 347.004 -399.325 347.004 -365.952V23.5024C347.004 63.1084 312.365 93.7957 273.047 89.0211L-134.953 39.4746C-168.083 35.4514 -192.996 7.32958 -192.996 -26.044V-415.498Z" fill="#062D3E"/>
</g>
<defs>
<clipPath id="clip0_1_739">
<rect width="321" height="57" fill="white" transform="translate(7.93355 0.00219727) rotate(7.00012)"/>
</clipPath>
</defs>
</svg>
