<svg width="35" height="37" viewBox="0 0 35 37" fill="none" xmlns="http://www.w3.org/2000/svg">
<path d="M17.5027 36.5647C27.1525 36.5647 34.9752 28.5611 34.9752 18.6882C34.9752 8.81532 27.1525 0.811768 17.5027 0.811768C7.85297 0.811768 0.030304 8.81532 0.030304 18.6882C0.030304 28.5611 7.85297 36.5647 17.5027 36.5647Z" fill="white"/>
<path d="M22.8892 11.9523C22.1711 11.9523 21.6924 12.442 21.6924 13.1767C21.6924 13.9113 22.2908 14.4011 22.8892 14.4011C23.6072 14.4011 24.0859 13.9113 24.0859 13.1767C24.0859 12.5645 23.6072 11.9523 22.8892 11.9523Z" fill="#062D3E"/>
<path d="M17.6231 13.547C14.8706 13.547 12.5967 15.8734 12.5967 18.6895C12.5967 21.5057 14.8706 23.8321 17.6231 23.8321C20.3756 23.8321 22.6494 21.5057 22.6494 18.6895C22.6494 15.8734 20.3756 13.547 17.6231 13.547ZM17.6231 21.9955C15.8279 21.9955 14.3919 20.5262 14.3919 18.6895C14.3919 16.8529 15.8279 15.3836 17.6231 15.3836C19.4182 15.3836 20.8543 16.8529 20.8543 18.6895C20.8543 20.5262 19.4182 21.9955 17.6231 21.9955Z" fill="#062D3E"/>
<path d="M21.5733 29.219H13.4355C10.0846 29.219 7.33209 26.4028 7.33209 22.9745V14.6484C7.33209 11.2201 10.0846 8.40393 13.4355 8.40393H21.5733C24.9242 8.40393 27.6767 11.2201 27.6767 14.6484V22.852C27.7964 26.4028 25.0439 29.219 21.5733 29.219ZM13.4355 10.2406C11.042 10.2406 9.24688 12.1996 9.24688 14.526V22.852C9.24688 25.3008 11.1617 27.1375 13.4355 27.1375H21.5733C23.9668 27.1375 25.7619 25.1784 25.7619 22.852V14.526C25.7619 12.0772 23.8471 10.2406 21.5733 10.2406H13.4355V10.2406Z" fill="#062D3E"/>
</svg>
