<svg width="550" height="163" viewBox="0 0 550 163" fill="none" xmlns="http://www.w3.org/2000/svg">
<g clip-path="url(#clip0_1_978)">
<path d="M483.352 11.1985C415.459 -11.8206 314.553 13.0649 270.328 72.7901C222.367 0.62219 128.935 -20.5305 51.6987 21.1527C21.8007 36.7062 -2.49151 74.6565 -7.42722e-06 105.763C0.622869 112.607 2.4915 132.515 16.8177 144.336C23.0464 149.313 29.2752 151.179 31.1438 151.802C33.6353 152.424 43.6014 155.534 56.6818 152.424C71.0079 148.691 84.0883 138.115 82.8426 132.515C82.8426 131.893 82.2197 130.027 80.9739 130.027C79.1053 129.405 75.9909 131.893 75.3681 132.515C69.1393 138.115 54.1903 143.092 45.47 143.714C35.504 144.336 24.9151 138.115 19.3092 131.893C3.11437 113.851 14.3262 84.6107 15.5719 80.8779C22.4235 60.3474 42.3556 46.6604 61.0419 37.9504C107.758 14.9314 169.422 13.6871 213.647 42.3054C231.71 54.126 247.905 71.5459 259.74 90.21C252.888 102.653 246.659 116.962 246.659 130.649C246.659 144.958 254.757 164.244 270.951 163.622C284.655 163 293.375 148.069 294.621 135.626C295.866 118.828 287.146 101.408 279.049 86.4772C280.294 85.2329 282.163 82.7443 284.032 80.2558C322.65 37.3283 373.726 25.5077 383.692 23.0191C405.493 18.6642 463.42 6.22143 504.53 39.1947C510.759 44.1718 533.805 62.8359 534.428 90.8321C534.428 105.763 527.576 127.538 512.004 133.137C504.53 135.626 490.827 136.248 480.861 129.405C477.746 126.916 472.763 122.561 470.272 123.805C469.026 124.428 469.026 126.916 469.026 127.538C469.026 135.626 487.712 144.958 504.53 144.336C516.988 143.714 526.331 138.115 528.199 136.87C546.263 124.428 549.377 102.031 550 97.0535C553.737 61.5917 517.61 22.397 483.352 11.1985ZM270.328 100.786C272.197 104.519 274.066 108.874 275.934 114.473C279.049 125.05 282.786 135.626 277.803 144.336C276.557 146.202 274.689 149.313 270.951 149.935C267.837 150.557 264.723 148.691 264.1 148.691C256.625 143.714 259.117 126.916 261.608 117.584C264.1 110.118 267.214 104.519 270.328 100.786Z" fill="#062D3E"/>
</g>
<defs>
<clipPath id="clip0_1_978">
<rect width="550" height="163" fill="white"/>
</clipPath>
</defs>
</svg>
