<svg width="80" height="53" viewBox="0 0 80 53" fill="none" xmlns="http://www.w3.org/2000/svg">
<path d="M12.8302 21.9571C4.27673 21.9571 0 18.2556 0 10.8524C0 7.82381 0.838575 5.46825 2.51572 3.78571C4.36059 1.93492 6.03774 0.84127 7.54717 0.504757C9.0566 0.168253 10.3983 0 11.5723 0C17.9455 0 23.3962 2.01904 27.9245 6.05714C32.4528 9.92698 34.717 15.227 34.717 21.9571C34.717 36.0905 24.3187 46.4381 3.52201 53V45.9333C7.71488 45.4286 11.9916 43.1571 16.3522 39.119C20.8805 34.9127 23.1447 30.2016 23.1447 24.9857C23.1447 21.9571 22.9769 20.1905 22.6415 19.6857C22.4738 19.0127 21.8029 18.6762 20.6289 18.6762C20.1258 18.6762 19.1195 19.2651 17.6101 20.4429C16.2683 21.4524 14.6751 21.9571 12.8302 21.9571ZM58.1132 21.9571C49.5597 21.9571 45.283 18.2556 45.283 10.8524C45.283 7.82381 46.1216 5.46825 47.7987 3.78571C49.6436 1.93492 51.3208 0.84127 52.8302 0.504757C54.3396 0.168253 55.6813 0 56.8553 0C63.2285 0 68.6792 2.01904 73.2075 6.05714C77.7358 9.92698 80 15.227 80 21.9571C80 36.0905 69.6017 46.4381 48.805 53V45.9333C52.9979 45.4286 57.2746 43.1571 61.6352 39.119C66.1635 34.9127 68.4277 30.2016 68.4277 24.9857C68.4277 21.9571 68.26 20.1905 67.9245 19.6857C67.7568 19.0127 67.086 18.6762 65.912 18.6762C65.4088 18.6762 64.4025 19.2651 62.8931 20.4429C61.5514 21.4524 59.9581 21.9571 58.1132 21.9571Z" fill="#EBE3CC"/>
</svg>
