<svg width="260" height="219" viewBox="0 0 260 219" fill="none" xmlns="http://www.w3.org/2000/svg">
<path d="M127.372 74.6258C132.641 86.6854 137.15 99.4603 144.646 110.267C145.594 111.624 147.881 110.867 147.406 109.091C144.113 96.2104 137.405 84.2424 131.639 72.2422C130.29 69.3822 126.109 71.8158 127.372 74.6258Z" fill="#FBBD08"/>
<path d="M115.616 116.115C115.763 121.053 116.58 126.031 118.13 130.74C119.498 134.766 121.331 139.986 124.939 142.535C126.743 143.81 128.751 141.737 128.463 139.838C127.802 135.989 124.794 132.401 123.5 128.648C122.045 124.572 121.137 120.35 120.863 116.032C120.657 112.793 115.46 112.79 115.616 116.115Z" fill="#FBBD08"/>
<path d="M130.607 163.49C129.255 165.827 132.891 167.93 134.243 165.593C135.595 163.256 131.959 161.153 130.607 163.49Z" fill="#FBBD08"/>
<path d="M91.0207 134.466C92.94 139.735 94.9459 145.055 97.0018 150.288C97.8223 152.264 101.051 151.475 100.281 149.412C98.4118 144.056 96.3058 138.91 94.2999 133.59C93.5294 131.527 90.2502 132.403 91.0207 134.466Z" fill="#FBBD08"/>
<path d="M97.5877 173.039C100.486 176.217 102.127 180.17 105.075 183.262C106.296 184.546 108.682 183.616 108.704 181.781C108.507 176.93 104.884 172.408 101.727 169.079C99.1114 166.411 95.1955 170.384 97.5877 173.039Z" fill="#FBBD08"/>
<path d="M96.1956 80.3887C96.3659 85.686 95.8165 91.029 98.1228 95.8291C98.6014 96.7991 100.054 96.4844 100.382 95.5186C101.984 90.5533 100.684 85.4113 100.277 80.3236C99.9298 77.9279 96.0854 77.7833 96.1956 80.3887Z" fill="#FBBD08"/>
<path d="M82.3619 36.8031C82.6223 39.1488 82.9328 41.4079 83.5165 43.594C83.8585 44.6005 84.797 45.3746 85.8264 45.3924C86.7693 45.3602 87.9761 44.6721 88.1306 43.6062C88.3352 42.4537 88.5398 41.3013 88.5212 40.1352C88.4525 39.0558 88.5205 37.9398 88.4518 36.8603C88.4604 35.2479 87.0297 33.727 85.3672 33.805C83.8914 33.7599 82.0608 35.127 82.3619 36.8031Z" fill="#FBBD08"/>
<path d="M65.073 55.1056C65.2791 58.344 65.4851 61.5825 65.7777 64.871C66.0109 67.6631 65.8206 70.7878 67.0102 73.3244C67.7213 74.8911 70.0441 74.2709 70.4855 72.9088C71.2316 70.2212 70.7523 67.0557 70.5191 64.2637C70.3496 61.1618 70.1299 58.1466 69.9604 55.0448C69.7909 51.943 64.8169 51.9537 65.073 55.1056Z" fill="#FBBD08"/>
<path d="M123.691 18.0828C120.405 24.9617 115.475 33.0847 114.516 40.7326C114.28 43.1377 117.455 43.2414 118.529 41.7835C120.815 38.8312 121.952 34.8681 123.286 31.3649C124.733 27.4655 126.18 23.566 127.454 19.5665C128.21 17.4619 124.67 15.9918 123.691 18.0828Z" fill="#FBBD08"/>
<path d="M74.9271 144.911C75.6976 146.974 76.468 149.037 77.2385 151.1C77.9359 152.89 78.5333 154.853 79.6907 156.447C80.2694 157.244 81.6995 156.569 81.6673 155.626C81.5163 153.69 80.5957 151.887 79.8982 150.097C79.1642 148.171 78.4303 146.244 77.6963 144.318C77.0489 142.441 74.3162 143.171 74.9271 144.911Z" fill="#FBBD08"/>
<path d="M88.1792 192.897C90.0842 196.194 91.8526 199.528 94.3678 202.369C94.8736 202.893 95.8937 202.327 95.7113 201.644C94.4529 198.028 92.4478 194.904 90.5428 191.607C89.645 190.163 87.2814 191.453 88.1792 192.897Z" fill="#FBBD08"/>
<path d="M168.044 93.1873C168.154 95.7927 168.228 98.2614 168.338 100.867C168.425 103.112 168.499 105.581 169.356 107.694C169.98 109.211 172.166 108.627 172.608 107.265C173.277 105.11 172.893 102.578 172.669 100.369C172.459 97.9366 172.249 95.5044 172.038 93.0722C172.015 90.5169 167.897 90.4453 168.044 93.1873Z" fill="#FBBD08"/>
<path d="M73.867 106.404C72.8154 108.222 75.5853 109.824 76.6369 108.007C77.6384 106.276 74.8685 104.673 73.867 106.404Z" fill="#FBBD08"/>
</svg>
