<svg width="35" height="37" viewBox="0 0 35 37" fill="none" xmlns="http://www.w3.org/2000/svg">
<path d="M17.528 36.5647C27.1778 36.5647 35.0005 28.5611 35.0005 18.6882C35.0005 8.81532 27.1778 0.811768 17.528 0.811768C7.87827 0.811768 0.055603 8.81532 0.055603 18.6882C0.055603 28.5611 7.87827 36.5647 17.528 36.5647Z" fill="white"/>
<path d="M27.2224 12.5664C26.624 12.8113 25.906 13.0562 25.3076 13.1786C25.6666 13.1786 26.0256 12.5664 26.265 12.3215C26.5043 11.9542 26.7437 11.5869 26.8634 11.0971V10.9747H26.7437C26.0256 11.342 25.3076 11.7093 24.4699 11.8318C24.3502 11.8318 24.3502 11.8318 24.3502 11.8318C24.2305 11.7093 24.2305 11.7093 24.1108 11.5869C23.7518 11.342 23.3928 11.0971 23.0338 10.8522C22.5551 10.6074 21.9567 10.4849 21.3583 10.6074C20.76 10.6074 20.2813 10.8522 19.8026 11.0971C19.3239 11.342 18.8452 11.7093 18.4862 12.1991C18.1271 12.6889 17.8878 13.1786 17.7681 13.7908C17.6484 14.403 17.6484 14.8928 17.7681 15.505C17.7681 15.6275 17.7681 15.6275 17.6484 15.6275C14.5369 15.1377 11.9041 14.0357 9.74995 11.5869C9.63027 11.4645 9.63028 11.4645 9.5106 11.5869C8.55321 13.0562 9.0319 15.2601 10.2286 16.3621C10.3483 16.4845 10.5877 16.607 10.7073 16.8519C10.5877 16.8519 9.86962 16.7294 9.15158 16.3621C9.0319 16.3621 9.0319 16.3621 9.0319 16.4845C9.0319 16.607 9.0319 16.7294 9.0319 16.9743C9.15158 18.4436 10.2286 19.7905 11.5451 20.2802C11.6647 20.4027 11.9041 20.4027 12.0238 20.4027C11.6647 20.5251 11.4254 20.5251 10.5877 20.4027C10.468 20.4027 10.468 20.4027 10.468 20.5251C11.0664 22.3617 12.5025 22.8515 13.5795 23.2188C13.6992 23.2188 13.8189 23.2188 14.0582 23.2188C13.6992 23.7086 12.5025 24.1984 11.9041 24.3208C10.827 24.6881 9.74995 24.8106 8.67288 24.6881C8.5532 24.6881 8.43353 24.6881 8.43353 24.6881V24.8106C8.67288 24.933 8.91223 25.0554 9.15158 25.1779C9.86962 25.5452 10.5877 25.9125 11.3057 26.035C15.255 27.1369 19.5632 26.2799 22.5551 23.3413C24.8289 21.0149 25.6666 17.8314 25.6666 14.5255C25.6666 14.403 25.7863 14.2806 25.906 14.2806C26.5043 13.7908 26.983 13.3011 27.4617 12.6889C27.2224 12.8113 27.2224 12.6889 27.2224 12.5664Z" fill="#062D3E"/>
</svg>
