<svg width="108" height="229" viewBox="0 0 108 229" fill="none" xmlns="http://www.w3.org/2000/svg">
<g clip-path="url(#clip0_1_918)">
<path d="M108.552 10.2499C108.154 10.4483 107.757 10.7128 107.359 11.0434C105.768 12.2337 104.642 14.0192 103.316 15.6062C100.997 18.582 98.2799 21.161 95.2977 23.2109C95.0989 24.798 93.7735 26.0544 92.3818 26.0544C92.3155 27.2447 92.183 28.3689 92.1167 29.5592C88.4055 34.0559 85.4896 39.4783 83.7003 45.2976C82.9713 45.3637 82.1761 45.4959 81.4471 45.6282C80.0554 48.6039 78.73 51.5136 77.3383 54.4893C76.5431 54.6877 75.8804 55.349 75.2177 56.0102C73.8922 57.3989 72.5668 58.7876 71.8379 60.6392C70.9101 63.0198 71.1751 65.8633 70.2474 68.2438C69.7172 69.5003 68.9219 70.5583 68.5243 71.8147C68.193 72.8728 68.2592 74.1292 68.8557 74.9889C68.7231 75.3195 68.5243 75.584 68.3918 75.9147C66.4699 76.9066 64.8132 78.5598 63.7528 80.742C63.2227 81.0065 62.6262 81.271 62.0961 81.4694C61.0357 82.9903 59.9754 84.5113 58.9151 86.0322C57.921 86.0983 56.9269 86.2306 55.9329 86.2967C54.74 87.6854 53.6134 89.0741 52.4205 90.5289C53.8122 90.8595 55.1376 91.2563 56.5293 91.653C56.6619 92.4466 56.3968 93.3062 55.8666 93.9014C55.9329 95.8191 55.9992 97.7368 56.0654 99.6545C55.6015 100.58 55.0714 101.572 54.6075 102.498L53.7459 104.217C53.5471 104.68 53.2821 105.143 53.0832 105.54C53.0832 105.606 53.017 105.672 53.017 105.672C51.3602 105.143 49.7034 105.077 48.0467 105.408C48.5768 107.127 49.1733 108.78 49.7034 110.499C48.1792 113.078 46.655 115.723 45.1308 118.302C45.8597 119.427 44.9982 121.08 43.8716 121.477C42.745 121.873 41.5521 121.344 40.4255 120.881C40.9557 123.196 40.4255 125.775 39.1001 127.56C39.8954 127.957 39.9616 129.28 39.564 130.139C39.1664 130.999 38.3711 131.528 37.7747 132.123C35.9191 133.975 34.9251 136.686 33.931 139.265C33.3346 140.918 32.7381 142.571 32.1417 144.225C30.6837 148.258 27.3702 149.382 25.6472 153.284C25.4484 153.747 25.9785 155.4 26.2436 156.656C25.9123 157.318 25.5146 157.913 25.1833 158.574C25.0507 158.64 24.9845 158.64 24.8519 158.706C23.4602 159.235 21.936 162.013 21.8697 162.013C21.8697 162.013 21.5384 163.071 21.4721 163.997L21.207 163.931C21.207 163.005 21.2733 162.079 21.3396 161.153C21.3396 160.823 21.4058 160.492 21.4058 160.161C21.5384 158.177 21.7372 156.127 22.0023 154.144C22.0686 153.747 22.0686 153.35 22.1348 153.019C22.2011 152.623 22.2674 152.226 22.2674 151.895C22.5324 149.911 22.8638 147.928 23.1289 145.944C23.2614 145.283 23.3277 144.687 23.4602 144.092C23.659 142.77 23.9241 141.381 24.1892 140.058C24.3218 139.199 24.5206 138.339 24.7194 137.479C24.8519 136.686 25.0507 135.892 25.2495 135.099C25.2495 135.033 25.2495 134.967 25.3158 134.901C25.846 132.322 26.5087 129.743 27.1051 127.164C27.1714 127.031 27.1714 126.833 27.2377 126.635C27.3702 125.973 27.569 125.378 27.7678 124.717C27.9004 124.254 28.0329 123.791 28.0992 123.328C28.298 122.535 28.5631 121.741 28.7619 120.948C29.1595 119.559 29.5571 118.236 29.9548 116.848C30.3524 115.525 30.75 114.203 31.2139 112.814C31.479 111.954 31.7441 111.161 32.0092 110.301C32.2742 109.441 32.5393 108.648 32.8707 107.788C36.9132 95.8852 41.8172 84.2467 47.5828 73.2034C48.4443 71.5502 49.3058 69.897 50.1673 68.31C50.2336 68.1777 50.2999 68.0455 50.3661 67.9793C50.6975 67.3181 51.0951 66.6568 51.4265 66.0616L52.0892 64.9375C54.4087 60.9037 56.8607 57.0022 59.379 53.1667C60.5056 51.4474 61.6984 49.7942 62.8913 48.141C63.1564 47.7443 63.4877 47.3475 63.7528 46.9507C64.5481 45.8927 65.3433 44.8347 66.1386 43.7766C68.5243 40.7347 70.9763 37.759 73.5609 34.9816C76.0792 32.1382 78.8625 29.4931 81.6459 26.9141C83.0376 25.6576 84.4956 24.4674 85.9535 23.2109C86.6825 22.6158 87.4115 22.0206 88.1404 21.4916L90.3936 19.8384C91.1889 19.3094 91.9179 18.7142 92.7131 18.2514C93.5084 17.7885 94.3036 17.2594 95.0989 16.7965C96.6894 15.8708 98.2136 14.8788 99.9366 14.0853C100.666 13.6885 101.461 13.3579 102.19 12.9611C102.256 12.9611 102.322 12.895 102.389 12.895C103.184 12.4982 104.045 12.1015 104.907 11.837C106.034 11.1096 107.293 10.6467 108.552 10.2499Z" fill="#EBE3CC"/>
<path d="M108.552 10.2499C108.154 10.4483 107.757 10.7128 107.359 11.0434C105.768 12.2337 104.642 14.0192 103.316 15.6062C100.997 18.582 98.2799 21.161 95.2977 23.2109C95.0989 24.798 93.7735 26.0544 92.3818 26.0544C92.3155 27.2447 92.183 28.3689 92.1167 29.5592C88.4055 34.0559 85.4896 39.4783 83.7003 45.2976C82.9713 45.3637 82.1761 45.4959 81.4471 45.6282C80.0554 48.6039 78.73 51.5136 77.3383 54.4893C76.5431 54.6877 75.8804 55.349 75.2177 56.0102C73.8922 57.3989 72.5668 58.7876 71.8379 60.6392C70.9101 63.0198 71.1751 65.8633 70.2474 68.2438C69.7172 69.5003 68.9219 70.5583 68.5243 71.8147C68.193 72.8728 68.2592 74.1292 68.8557 74.9889C68.7231 75.3195 68.5243 75.584 68.3918 75.9147C66.4699 76.9066 64.8132 78.5598 63.7528 80.742C63.2227 81.0065 62.6262 81.271 62.0961 81.4694C61.0357 82.9903 59.9754 84.5113 58.9151 86.0322C57.921 86.0983 56.9269 86.2306 55.9329 86.2967C54.74 87.6854 53.6134 89.0741 52.4205 90.5289C53.8122 90.8595 55.1376 91.2563 56.5293 91.653C56.6619 92.4466 56.3968 93.3062 55.8666 93.9014C55.9329 95.8191 55.9992 97.7368 56.0654 99.6545C55.6015 100.58 55.0714 101.572 54.6075 102.498L53.7459 104.217C53.5471 104.68 53.2821 105.143 53.0832 105.54C53.0832 105.606 53.017 105.672 53.017 105.672C51.3602 105.143 49.7034 105.077 48.0467 105.408C48.5768 107.127 49.1733 108.78 49.7034 110.499C48.1792 113.078 46.655 115.723 45.1308 118.302C45.8597 119.427 44.9982 121.08 43.8716 121.477C42.745 121.873 41.5521 121.344 40.4255 120.881C40.9557 123.196 40.4255 125.775 39.1001 127.56C39.8954 127.957 39.9616 129.28 39.564 130.139C39.1664 130.999 38.3711 131.528 37.7747 132.123C35.9191 133.975 34.9251 136.686 33.931 139.265C33.3346 140.918 32.7381 142.571 32.1417 144.225C30.6837 148.258 27.3702 149.382 25.6472 153.284C25.4484 153.747 25.9785 155.4 26.2436 156.656C25.9123 157.318 25.5146 157.913 25.1833 158.574C25.0507 158.64 24.9845 158.64 24.8519 158.706C23.4602 159.235 21.936 162.013 21.8697 162.013C21.8697 162.013 21.5384 163.071 21.4721 163.997L21.207 163.931C21.207 163.005 21.2733 162.079 21.3396 161.153C21.3396 160.823 21.4058 160.492 21.4058 160.161C21.5384 158.177 21.7372 156.127 22.0023 154.144C22.0686 153.747 22.0686 153.35 22.1348 153.019C22.0686 152.028 22.0023 151.036 21.8035 150.044C21.6047 149.184 21.4058 148.324 21.5384 147.399C21.7372 146.076 22.665 145.084 23.4602 144.026C23.7253 142.704 23.9241 141.315 24.1892 139.992C24.3218 139.133 24.5206 138.273 24.7194 137.413C24.8519 136.62 25.0507 135.826 25.2495 135.033C25.2495 134.967 25.2495 134.901 25.3158 134.834C25.0507 133.446 24.4543 132.189 23.7253 131.065C24.6531 129.544 25.846 128.155 27.1714 127.097C27.2377 126.965 27.2377 126.767 27.3039 126.568C27.4365 125.907 27.6353 125.312 27.8341 124.651C27.9666 124.188 28.0992 123.725 28.1655 123.262C28.3643 122.469 28.6294 121.675 28.8282 120.881C28.1655 117.972 29.1595 114.599 31.2139 112.814C31.479 111.954 31.7441 111.161 32.0092 110.301C32.2742 109.441 32.5393 108.648 32.8707 107.788C32.7381 107.259 32.7381 106.664 32.7381 106.135C33.0032 102.895 33.9973 99.7867 35.654 97.1416C36.383 95.9513 37.3108 94.8933 37.841 93.5707C39.1001 90.6611 38.7025 86.958 40.4918 84.4451C41.2208 83.4532 42.2148 82.7258 42.6787 81.6016C43.6065 79.5517 42.8776 76.5759 44.468 75.2534C44.9319 74.8566 45.5284 74.7244 45.926 74.1953C46.5887 73.2034 45.8597 71.6825 46.1911 70.4922C46.655 68.839 48.6431 68.7729 50.1673 68.31C50.2336 68.1777 50.2999 68.0455 50.3661 67.9793C50.6975 67.3181 51.0951 66.6568 51.4265 66.0616L52.0892 64.9375V64.8713C52.2217 62.623 53.8785 60.9037 55.1376 59.2505C56.3968 57.5312 57.3908 54.9522 56.2642 53.1006C57.0595 53.5635 57.9873 52.5716 58.3849 51.5797C58.7825 50.5878 59.0476 49.3975 59.8429 48.9346C60.5056 48.5378 61.2345 48.7362 61.9635 48.6039C62.3611 48.5378 62.6925 48.3394 62.9576 48.141C63.2227 47.7443 63.554 47.3475 63.8191 46.9507C64.4155 45.6943 64.4155 44.0411 63.4877 43.0492C65.4096 42.5202 66.8013 40.1396 66.4699 37.8913C67.7953 39.0154 69.5184 37.3622 70.4462 35.8413C72.5668 32.6011 74.6875 29.4269 76.8082 26.1867C77.2721 25.5254 77.7359 24.798 78.3987 24.4674C79.6578 23.8061 81.2483 24.5996 82.4412 23.8061C83.0376 23.4093 83.369 22.6819 83.7666 22.0206C86.2849 18.2514 91.2552 18.3175 94.635 15.6062C95.8941 14.6143 96.8882 13.1595 98.2136 12.2999C99.539 11.3741 101.328 11.0434 102.521 12.2337C102.389 12.4982 102.322 12.6966 102.19 12.895C102.256 12.895 102.322 12.8289 102.389 12.8289C103.184 12.4321 104.045 12.0354 104.907 11.7708C106.034 11.1096 107.293 10.6467 108.552 10.2499Z" fill="#EBE3CC"/>
<path d="M56.1976 23.0125C55.9325 23.1448 55.6674 23.3432 55.4023 23.5416C54.4083 24.3351 53.613 25.4593 52.8178 26.4512C51.2935 28.3689 49.5705 30.0221 47.6486 31.3446C47.5161 32.3365 46.6546 33.1962 45.7931 33.1962C45.7268 33.9236 45.6605 34.651 45.5942 35.4445C43.2085 38.3542 41.3529 41.7928 40.16 45.5621C39.6962 45.6282 39.166 45.6943 38.7021 45.7604C37.8406 47.6782 36.9128 49.5297 36.0513 51.4474C35.5211 51.5797 35.1235 51.9765 34.7259 52.4393C33.8643 53.299 33.0028 54.2248 32.5389 55.4151C31.9425 56.936 32.1413 58.7876 31.5449 60.3085C31.2135 61.1021 30.6833 61.7633 30.4183 62.623C30.2194 63.2843 30.2194 64.1439 30.6171 64.673C30.4845 64.8713 30.4183 65.0697 30.2857 65.2681C29.0266 65.8633 27.9662 66.9874 27.3035 68.3761C26.9722 68.5084 26.5746 68.7067 26.2432 68.839C25.5805 69.8309 24.8515 70.8228 24.1888 71.7486C23.5261 71.8147 22.9297 71.8809 22.267 71.947C21.538 72.8728 20.7427 73.7324 20.0138 74.6582C20.8753 74.9227 21.8031 75.1211 22.6646 75.3856C22.7309 75.9147 22.5983 76.4437 22.267 76.8404L22.3995 80.5436C22.0681 81.1387 21.7368 81.7339 21.4717 82.3952C21.0078 82.9242 20.6102 83.5855 20.4776 84.379C20.4776 84.379 20.4776 84.4451 20.4114 84.5112C19.351 84.1806 18.2907 84.1145 17.2304 84.3129C17.5617 85.437 17.9594 86.4951 18.2907 87.5531C17.2967 89.2063 16.3026 90.9256 15.3748 92.5788C15.8387 93.3062 15.3085 94.3643 14.5796 94.6288C13.8506 94.8933 13.0553 94.5626 12.3264 94.232C12.6577 95.6868 12.3264 97.34 11.4648 98.5303C11.995 98.7948 11.995 99.6545 11.7299 100.183C11.4648 100.713 11.0009 101.043 10.537 101.506C9.34417 102.696 8.68146 104.416 8.08503 106.069C7.6874 107.127 7.28978 108.185 6.95842 109.243C6.03063 111.822 3.90997 112.549 2.78337 115.062C2.65083 115.327 2.98218 116.385 3.18099 117.178C2.91591 117.575 2.7171 117.972 2.45202 118.435C2.38575 118.435 2.31947 118.501 2.2532 118.501C1.39168 118.831 0.397624 120.617 0.331354 120.617C0.331354 120.617 0.132541 121.278 0.0662707 121.939L0 121.807C0 121.146 0.0662707 120.485 0.0662707 119.823C0.0662707 119.493 0.132541 119.162 0.132541 118.831C0.132541 118.501 0.198812 118.104 0.198812 117.773C0.198812 117.443 0.265083 117.178 0.265083 116.848C0.265083 116.649 0.331354 116.451 0.331354 116.253C0.331354 115.988 0.397624 115.79 0.397624 115.525C0.397624 115.261 0.463895 114.93 0.530166 114.665C0.530166 114.401 0.596436 114.136 0.596436 113.938C0.728978 112.615 0.92779 111.359 1.19287 110.103C1.25914 109.706 1.32541 109.309 1.39168 108.912C1.52423 108.053 1.72304 107.193 1.85558 106.333C2.05439 105.209 2.31947 104.085 2.51829 103.027C2.84964 101.374 3.24726 99.7206 3.71116 98.0674C3.8437 97.4061 4.04251 96.7449 4.24133 96.0836C4.44014 95.4223 4.57268 94.761 4.77149 94.0998C5.03657 93.2401 5.30166 92.3804 5.50047 91.4547C5.76555 90.595 6.03063 89.7353 6.29572 88.8757C6.62707 87.8176 6.95842 86.6935 7.35605 85.6354C9.94061 77.9646 13.1216 70.5583 16.7665 63.4165C17.2967 62.3585 17.8931 61.3004 18.4233 60.2424C18.4895 60.1763 18.5558 60.044 18.5558 59.9779C18.8209 59.515 19.0197 59.1182 19.2848 58.6553C19.4173 58.457 19.4836 58.2586 19.6161 58.0602C21.0741 55.4812 22.6646 52.9684 24.3214 50.5216C25.0503 49.3975 25.7793 48.3394 26.5746 47.2814C26.7734 47.0169 26.9722 46.7524 27.1047 46.4879C27.6349 45.8266 28.0988 45.0992 28.6289 44.4379C30.1532 42.5202 31.7437 40.6025 33.4004 38.7509C35.0572 36.8993 36.7802 35.2462 38.5696 33.5268C39.4973 32.7333 40.4251 31.9398 41.3529 31.1462C41.8168 30.7495 42.2807 30.4188 42.8109 30.0221L44.2688 28.964C44.799 28.6334 45.2629 28.2366 45.7268 27.906C46.257 27.5754 46.7209 27.2447 47.251 26.9802C48.2451 26.3851 49.2391 25.7238 50.3657 25.2609C50.8296 24.9964 51.3598 24.798 51.8237 24.5335C51.89 24.5335 51.89 24.4674 51.9562 24.4674C52.4864 24.2028 53.0166 23.9383 53.5467 23.8061C54.5408 23.6077 55.4023 23.2771 56.1976 23.0125Z" fill="#EBE3CC"/>
<path d="M56.1976 23.0125C55.9325 23.1448 55.6674 23.3432 55.4023 23.5416C54.4083 24.3351 53.613 25.4593 52.8178 26.4512C51.2935 28.3689 49.5705 30.0221 47.6486 31.3446C47.5161 32.3365 46.6546 33.1962 45.7931 33.1962C45.7268 33.9236 45.6605 34.651 45.5942 35.4445C43.2085 38.3542 41.3529 41.7928 40.16 45.5621C39.6962 45.6282 39.166 45.6943 38.7021 45.7604C37.8406 47.6782 36.9128 49.5297 36.0513 51.4474C35.5211 51.5797 35.1235 51.9765 34.7259 52.4393C33.8643 53.299 33.0028 54.2248 32.5389 55.4151C31.9425 56.936 32.1413 58.7876 31.5449 60.3085C31.2135 61.1021 30.6833 61.7633 30.4183 62.623C30.2194 63.2843 30.2194 64.1439 30.6171 64.673C30.4845 64.8713 30.4183 65.0697 30.2857 65.2681C29.0266 65.8633 27.9662 66.9874 27.3035 68.3761C26.9722 68.5084 26.5746 68.7067 26.2432 68.839C25.5805 69.8309 24.8515 70.8228 24.1888 71.7486C23.5261 71.8147 22.9297 71.8809 22.267 71.947C21.538 72.8728 20.7427 73.7324 20.0138 74.6582C20.8753 74.9227 21.8031 75.1211 22.6646 75.3856C22.7309 75.9147 22.5983 76.4437 22.267 76.8404L22.3995 80.5436C22.0681 81.1387 21.7368 81.7339 21.4717 82.3952C21.0078 82.9242 20.6102 83.5855 20.4776 84.379C20.4776 84.379 20.4776 84.4451 20.4114 84.5112C19.351 84.1806 18.2907 84.1145 17.2304 84.3129C17.5617 85.437 17.9594 86.4951 18.2907 87.5531C17.2967 89.2063 16.3026 90.9256 15.3748 92.5788C15.8387 93.3062 15.3085 94.3643 14.5796 94.6288C13.8506 94.8933 13.0553 94.5626 12.3264 94.232C12.6577 95.6868 12.3264 97.34 11.4648 98.5303C11.995 98.7948 11.995 99.6545 11.7299 100.183C11.4648 100.713 11.0009 101.043 10.537 101.506C9.34417 102.696 8.68146 104.416 8.08503 106.069C7.6874 107.127 7.28978 108.185 6.95842 109.243C6.03063 111.822 3.90997 112.549 2.78337 115.062C2.65083 115.327 2.98218 116.385 3.18099 117.178C2.91591 117.575 2.7171 117.972 2.45202 118.435C2.38575 118.435 2.31947 118.501 2.2532 118.501C1.39168 118.831 0.397624 120.617 0.331354 120.617C0.331354 120.617 0.132541 121.278 0.0662707 121.939L0 121.807C0 121.146 0.0662707 120.485 0.0662707 119.823C0.0662707 119.493 0.132541 119.162 0.132541 118.831C0.132541 118.501 0.198812 118.104 0.198812 117.773C0.198812 117.443 0.265083 117.178 0.265083 116.848C0.265083 116.649 0.331354 116.451 0.331354 116.253C0.331354 115.988 0.397624 115.79 0.397624 115.525C0.397624 115.261 0.463895 114.93 0.530166 114.665C0.463895 114.004 0.397624 113.343 0.331354 112.748C0.198812 112.219 0.0662707 111.624 0.198812 111.095C0.331354 110.235 0.92779 109.574 1.45796 108.912C1.5905 108.053 1.78931 107.193 1.92185 106.333C2.12066 105.209 2.38575 104.085 2.58456 103.027C2.38575 102.167 2.05439 101.308 1.52423 100.58C2.12066 99.5884 2.84964 98.7287 3.71116 98.0674C3.8437 97.4061 4.04251 96.7449 4.24133 96.0836C4.44014 95.4223 4.57268 94.761 4.77149 94.0998C4.37387 92.2482 4.9703 90.066 6.29572 88.8757C6.62707 87.8176 6.95842 86.6935 7.35605 85.6354C7.22351 85.3048 7.28978 84.908 7.28978 84.5774C7.42232 82.5274 8.08503 80.4775 9.14536 78.8243C9.60925 78.0307 10.2057 77.3695 10.537 76.5098C11.3323 74.6582 11.0672 72.2776 12.1938 70.6244C12.6577 69.9632 13.3204 69.5003 13.6518 68.7729C14.2482 67.4503 13.7843 65.5326 14.8446 64.673C15.176 64.4084 15.5073 64.3423 15.7724 64.0117C16.2363 63.3504 15.7062 62.3585 15.905 61.6311C16.2363 60.573 17.4955 60.573 18.4233 60.2424C18.4895 60.1763 18.5558 60.044 18.5558 59.9779C18.8209 59.515 19.0197 59.1182 19.2848 58.6553C19.4173 58.457 19.4836 58.2586 19.6161 58.0602C19.6161 58.0602 19.6161 58.0602 19.6161 57.9941C19.6824 56.5393 20.7427 55.4812 21.538 54.357C22.3332 53.2329 22.9959 51.5797 22.267 50.3894C22.7971 50.72 23.3936 50.0587 23.5924 49.3975C23.7912 48.7362 23.99 48.0088 24.5202 47.6782C24.9178 47.4136 25.3817 47.5459 25.8456 47.4798C26.1107 47.4136 26.3095 47.3475 26.5083 47.1491C26.7071 46.8846 26.9059 46.6201 27.0384 46.3556C27.4361 45.5621 27.4361 44.504 26.8396 43.8428C28.0988 43.5121 28.9603 41.9912 28.7615 40.5364C29.623 41.2638 30.6833 40.2057 31.346 39.2138C32.7377 37.1639 34.0631 35.0478 35.4548 32.9978C35.7199 32.5349 36.0513 32.1382 36.4489 31.8736C37.2441 31.4769 38.3045 31.9398 39.0334 31.4769C39.4311 31.2124 39.6299 30.7495 39.895 30.3527C41.5517 27.906 44.7327 27.9721 46.8534 26.1867C47.6486 25.5254 48.3113 24.6657 49.1729 24.0706C50.0344 23.4754 51.161 23.2771 51.89 24.0045C51.8237 24.1367 51.7574 24.3351 51.6912 24.4674C51.7574 24.4674 51.7574 24.4012 51.8237 24.4012C52.3539 24.1367 52.884 23.8722 53.4142 23.7399C54.5408 23.6077 55.4023 23.2771 56.1976 23.0125Z" fill="#EBE3CC"/>
<path d="M178.931 0.396884C175.087 1.91782 171.774 5.2242 168.858 8.66284C158.984 20.3013 151.628 34.5849 141.223 45.6282C140.295 51.9764 136.584 57.7957 131.614 60.573C129.096 61.6972 126.312 61.8956 123.661 61.1021C124.788 62.623 125.848 64.2101 126.975 65.731C124.921 66.3261 124.854 69.6325 124.854 72.0792C124.788 81.2049 118.824 88.6111 113.986 95.8191C108.817 103.49 104.575 111.888 100.334 120.286C99.2738 122.402 98.2135 124.452 97.1531 126.568C94.3698 132.123 90.5923 138.339 85.0256 138.604C83.6339 138.67 82.1759 138.339 80.9168 138.934C79.6577 139.529 78.7961 141.646 79.7902 142.77C83.0375 141.579 85.8871 145.812 86.7486 149.647C87.6101 153.086 86.8149 158.244 83.7002 158.244C83.5676 159.698 83.4351 161.153 83.3025 162.542C79.26 166.51 75.2175 170.543 71.175 174.511C71.9703 177.288 71.8377 180.396 70.8436 183.108C69.0543 185.091 65.8733 185.025 64.1503 182.909C64.084 185.224 64.084 187.472 64.0178 189.786C63.0237 189.919 62.1622 190.448 61.4332 191.175C62.1622 192.233 62.9574 193.291 63.6864 194.349C61.632 198.846 59.5114 203.409 57.457 207.905C55.8665 211.344 54.276 214.783 52.3541 217.957C51.3601 219.544 49.8358 220.8 48.1791 219.941C48.1791 222.387 48.1791 225.032 48.8418 227.215C48.5104 227.81 48.1128 228.339 47.7814 228.934L46.9199 228.603C47.0525 223.115 47.5826 217.692 48.2453 212.336C48.1791 210.815 48.0465 209.294 47.7152 207.839C47.4501 206.583 47.1187 205.26 47.3175 203.938C47.5826 202.02 48.908 200.631 50.0346 199.11C49.1731 198.581 48.1791 198.251 47.2513 198.185C49.3057 194.217 50.6974 189.786 51.2938 185.157C51.4263 184.099 51.4926 183.041 51.8902 182.049C51.4926 181.19 51.0287 180.33 50.4985 179.537C51.824 177.354 53.4145 175.437 55.27 173.916C55.4026 171.535 54.8061 169.155 53.4807 167.303C54.4748 167.039 55.4688 166.708 56.4629 166.443C56.5954 165.187 57.1256 164.063 57.722 163.005C57.3907 159.566 58.5173 155.863 60.638 153.416C60.7705 150.837 60.3729 148.192 59.5114 145.812C62.2285 145.745 63.6201 141.778 63.3551 138.67C63.09 135.496 61.8971 132.388 62.4935 129.28C64.4817 129.743 66.7349 128.288 67.4638 126.106C67.7952 125.047 67.8615 123.791 68.1266 122.667C68.8555 119.757 70.9762 117.84 73.2294 115.988C73.627 113.938 74.1572 112.02 75.2838 110.367C76.3441 108.912 77.8021 107.788 78.5973 106.135C79.989 103.159 78.8624 98.6626 81.3144 96.7449C81.5795 96.5465 81.8446 96.3481 82.1759 96.2158C82.2422 96.1497 82.3085 96.0175 82.3085 95.9513C82.7061 95.0917 82.7724 94.0336 82.9712 93.0417C83.1037 92.3143 83.3688 91.5869 83.7002 90.9918C83.7002 90.5289 83.7002 90.066 83.8327 89.6692C84.4954 87.2225 87.4113 87.1563 89.6645 86.4289C88.4054 84.5112 87.2788 82.329 87.4113 80.0146C87.6101 77.4356 90.4598 75.2534 92.1165 76.9727C95.2975 74.7243 97.1531 70.2938 96.7555 65.9955C97.6833 66.1278 98.6111 65.7971 99.3401 65.2681C99.2075 64.7391 99.0087 64.2762 98.7436 63.8133C99.8702 64.4746 101.063 63.2843 101.726 61.9617C102.123 60.6392 102.19 59.1843 101.66 57.9279C102.389 58.0602 103.117 58.0602 103.846 57.8618C103.913 57.7957 103.979 57.7295 104.112 57.6634C104.377 57.465 104.708 57.3989 105.039 57.3328C106.1 56.7376 106.961 55.8118 107.491 54.5554C108.287 54.6877 109.082 54.7538 109.943 54.8861C110.01 54.8199 110.01 54.7538 110.076 54.6877C110.142 54.6215 110.142 54.5554 110.208 54.4232C110.01 53.4312 109.811 52.4393 109.612 51.4474C109.016 48.6701 108.485 45.5621 109.612 43.0492C110.805 40.4041 113.323 39.0815 115.51 37.4945C121.276 33.1301 124.655 25.7238 129.56 20.169C131.813 17.5901 134.397 15.3417 137.247 13.6224C139.169 12.4321 141.289 11.5063 143.41 11.7047C144.47 11.837 145.398 12.2337 146.26 12.895C149.573 11.4402 153.218 10.4483 156.068 8.13382C157.923 6.61288 159.448 4.56292 161.369 3.17424C163.291 1.78556 166.008 1.32267 167.731 3.10812C167.599 3.43875 167.4 3.76939 167.201 4.16616C167.268 4.10003 167.4 4.10003 167.466 4.0339C168.725 3.50488 169.918 2.84361 171.178 2.44684C173.696 1.52105 176.214 0.661394 178.799 -0.0660095L178.931 0.396884Z" fill="#EBE3CC"/>
</g>
<defs>
<clipPath id="clip0_1_918">
<rect width="212" height="229" fill="white"/>
</clipPath>
</defs>
</svg>
